<svg width="108" height="20" viewBox="0 0 108 20" fill="none" xmlns="http://www.w3.org/2000/svg">
<g clip-path="url(#clip0_360_26)">
<path d="M9.09999 2.39C9.19169 2.23263 9.32306 2.10206 9.48098 2.01131C9.63889 1.92056 9.81785 1.8728 9.99999 1.8728C10.1821 1.8728 10.3611 1.92056 10.519 2.01131C10.6769 2.10206 10.8083 2.23263 10.9 2.39L13.2292 6.38833L17.7525 7.36833C17.9304 7.407 18.0951 7.49162 18.2301 7.61378C18.3651 7.73593 18.4658 7.89134 18.522 8.06452C18.5783 8.2377 18.5881 8.42259 18.5506 8.60077C18.5131 8.77894 18.4296 8.94418 18.3083 9.08L15.225 12.5308L15.6917 17.135C15.7101 17.3163 15.6806 17.4992 15.6062 17.6656C15.5318 17.8319 15.415 17.9758 15.2676 18.083C15.1202 18.1901 14.9472 18.2566 14.766 18.276C14.5848 18.2954 14.4017 18.2669 14.235 18.1933L9.99999 16.3267L5.76499 18.1933C5.59825 18.2669 5.41515 18.2954 5.23395 18.276C5.05275 18.2566 4.87981 18.1901 4.73238 18.083C4.58495 17.9758 4.46821 17.8319 4.39379 17.6656C4.31938 17.4992 4.28991 17.3163 4.30832 17.135L4.77499 12.5308L1.69165 9.08083C1.57018 8.94502 1.48645 8.77972 1.44883 8.60143C1.41121 8.42314 1.42102 8.23811 1.47727 8.06479C1.53353 7.89148 1.63426 7.73596 1.76941 7.61375C1.90456 7.49154 2.06941 7.40691 2.24749 7.36833L6.77082 6.38833L9.09999 2.39Z" fill="#2F7AFF"/>
</g>
<g clip-path="url(#clip1_360_26)">
<path d="M31.1 2.39C31.1917 2.23263 31.3231 2.10206 31.481 2.01131C31.6389 1.92056 31.8178 1.8728 32 1.8728C32.1821 1.8728 32.3611 1.92056 32.519 2.01131C32.6769 2.10206 32.8083 2.23263 32.9 2.39L35.2292 6.38833L39.7525 7.36833C39.9304 7.407 40.0951 7.49162 40.2301 7.61378C40.3651 7.73593 40.4658 7.89134 40.522 8.06452C40.5783 8.2377 40.5881 8.42259 40.5506 8.60077C40.5131 8.77894 40.4296 8.94418 40.3083 9.08L37.225 12.5308L37.6917 17.135C37.7101 17.3163 37.6806 17.4992 37.6062 17.6656C37.5318 17.8319 37.415 17.9758 37.2676 18.083C37.1202 18.1901 36.9472 18.2566 36.766 18.276C36.5848 18.2954 36.4017 18.2669 36.235 18.1933L32 16.3267L27.765 18.1933C27.5983 18.2669 27.4151 18.2954 27.2339 18.276C27.0528 18.2566 26.8798 18.1901 26.7324 18.083C26.585 17.9758 26.4682 17.8319 26.3938 17.6656C26.3194 17.4992 26.2899 17.3163 26.3083 17.135L26.775 12.5308L23.6917 9.08083C23.5702 8.94502 23.4865 8.77972 23.4488 8.60143C23.4112 8.42314 23.421 8.23811 23.4773 8.06479C23.5335 7.89148 23.6343 7.73596 23.7694 7.61375C23.9046 7.49154 24.0694 7.40691 24.2475 7.36833L28.7708 6.38833L31.1 2.39Z" fill="#2F7AFF"/>
</g>
<g clip-path="url(#clip2_360_26)">
<path d="M53.1 2.39C53.1917 2.23263 53.3231 2.10206 53.481 2.01131C53.6389 1.92056 53.8178 1.8728 54 1.8728C54.1821 1.8728 54.3611 1.92056 54.519 2.01131C54.6769 2.10206 54.8083 2.23263 54.9 2.39L57.2292 6.38833L61.7525 7.36833C61.9304 7.407 62.0951 7.49162 62.2301 7.61378C62.3651 7.73593 62.4658 7.89134 62.522 8.06452C62.5783 8.2377 62.5881 8.42259 62.5506 8.60077C62.5131 8.77894 62.4296 8.94418 62.3083 9.08L59.225 12.5308L59.6917 17.135C59.7101 17.3163 59.6806 17.4992 59.6062 17.6656C59.5318 17.8319 59.415 17.9758 59.2676 18.083C59.1202 18.1901 58.9472 18.2566 58.766 18.276C58.5848 18.2954 58.4017 18.2669 58.235 18.1933L54 16.3267L49.765 18.1933C49.5983 18.2669 49.4151 18.2954 49.2339 18.276C49.0528 18.2566 48.8798 18.1901 48.7324 18.083C48.585 17.9758 48.4682 17.8319 48.3938 17.6656C48.3194 17.4992 48.2899 17.3163 48.3083 17.135L48.775 12.5308L45.6917 9.08083C45.5702 8.94502 45.4865 8.77972 45.4488 8.60143C45.4112 8.42314 45.421 8.23811 45.4773 8.06479C45.5335 7.89148 45.6343 7.73596 45.7694 7.61375C45.9046 7.49154 46.0694 7.40691 46.2475 7.36833L50.7708 6.38833L53.1 2.39Z" fill="#2F7AFF"/>
</g>
<g clip-path="url(#clip3_360_26)">
<path d="M75.1 2.39C75.1917 2.23263 75.3231 2.10206 75.481 2.01131C75.6389 1.92056 75.8178 1.8728 76 1.8728C76.1821 1.8728 76.3611 1.92056 76.519 2.01131C76.6769 2.10206 76.8083 2.23263 76.9 2.39L79.2292 6.38833L83.7525 7.36833C83.9304 7.407 84.0951 7.49162 84.2301 7.61378C84.3651 7.73593 84.4658 7.89134 84.522 8.06452C84.5783 8.2377 84.5881 8.42259 84.5506 8.60077C84.5131 8.77894 84.4296 8.94418 84.3083 9.08L81.225 12.5308L81.6917 17.135C81.7101 17.3163 81.6806 17.4992 81.6062 17.6656C81.5318 17.8319 81.415 17.9758 81.2676 18.083C81.1202 18.1901 80.9472 18.2566 80.766 18.276C80.5848 18.2954 80.4017 18.2669 80.235 18.1933L76 16.3267L71.765 18.1933C71.5983 18.2669 71.4151 18.2954 71.2339 18.276C71.0528 18.2566 70.8798 18.1901 70.7324 18.083C70.585 17.9758 70.4682 17.8319 70.3938 17.6656C70.3194 17.4992 70.2899 17.3163 70.3083 17.135L70.775 12.5308L67.6917 9.08083C67.5702 8.94502 67.4865 8.77972 67.4488 8.60143C67.4112 8.42314 67.421 8.23811 67.4773 8.06479C67.5335 7.89148 67.6343 7.73596 67.7694 7.61375C67.9046 7.49154 68.0694 7.40691 68.2475 7.36833L72.7708 6.38833L75.1 2.39Z" fill="#2F7AFF"/>
</g>
<g clip-path="url(#clip4_360_26)">
<path d="M97.1 2.39C97.1917 2.23263 97.3231 2.10206 97.481 2.01131C97.6389 1.92056 97.8178 1.8728 98 1.8728C98.1821 1.8728 98.3611 1.92056 98.519 2.01131C98.6769 2.10206 98.8083 2.23263 98.9 2.39L101.229 6.38833L105.752 7.36833C105.93 7.407 106.095 7.49162 106.23 7.61378C106.365 7.73593 106.466 7.89134 106.522 8.06452C106.578 8.2377 106.588 8.42259 106.551 8.60077C106.513 8.77894 106.43 8.94418 106.308 9.08L103.225 12.5308L103.692 17.135C103.71 17.3163 103.681 17.4992 103.606 17.6656C103.532 17.8319 103.415 17.9758 103.268 18.083C103.12 18.1901 102.947 18.2566 102.766 18.276C102.585 18.2954 102.402 18.2669 102.235 18.1933L98 16.3267L93.765 18.1933C93.5983 18.2669 93.4151 18.2954 93.2339 18.276C93.0528 18.2566 92.8798 18.1901 92.7324 18.083C92.585 17.9758 92.4682 17.8319 92.3938 17.6656C92.3194 17.4992 92.2899 17.3163 92.3083 17.135L92.775 12.5308L89.6917 9.08083C89.5702 8.94502 89.4865 8.77972 89.4488 8.60143C89.4112 8.42314 89.421 8.23811 89.4773 8.06479C89.5335 7.89148 89.6343 7.73596 89.7694 7.61375C89.9046 7.49154 90.0694 7.40691 90.2475 7.36833L94.7708 6.38833L97.1 2.39Z" fill="#2F7AFF"/>
</g>
<defs>
<clipPath id="clip0_360_26">
<rect width="20" height="20" fill="white"/>
</clipPath>
<clipPath id="clip1_360_26">
<rect width="20" height="20" fill="white" transform="translate(22)"/>
</clipPath>
<clipPath id="clip2_360_26">
<rect width="20" height="20" fill="white" transform="translate(44)"/>
</clipPath>
<clipPath id="clip3_360_26">
<rect width="20" height="20" fill="white" transform="translate(66)"/>
</clipPath>
<clipPath id="clip4_360_26">
<rect width="20" height="20" fill="white" transform="translate(88)"/>
</clipPath>
</defs>
</svg>
