<svg width="26" height="26" viewBox="0 0 26 26" fill="none" xmlns="http://www.w3.org/2000/svg">
<path d="M24 0.166992C24.4863 0.166992 24.9526 0.360147 25.2964 0.703963C25.6402 1.04778 25.8334 1.5141 25.8334 2.00033V16.667C25.8334 17.1532 25.6402 17.6195 25.2964 17.9634C24.9526 18.3072 24.4863 18.5003 24 18.5003C23.5138 18.5003 23.0475 18.3072 22.7037 17.9634C22.3598 17.6195 22.1667 17.1532 22.1667 16.667V6.42599L3.92503 24.6677C3.57926 25.0016 3.11615 25.1864 2.63546 25.1822C2.15476 25.1781 1.69494 24.9852 1.35502 24.6453C1.01511 24.3054 0.822301 23.8456 0.818124 23.3649C0.813946 22.8842 0.998736 22.4211 1.33269 22.0753L19.5744 3.83366H9.33336C8.84713 3.83366 8.38081 3.6405 8.037 3.29669C7.69318 2.95287 7.50003 2.48656 7.50003 2.00033C7.50003 1.5141 7.69318 1.04778 8.037 0.703963C8.38081 0.360147 8.84713 0.166992 9.33336 0.166992H24Z" fill="#2F7AFF"/>
</svg>
