<svg width="120" height="120" viewBox="0 0 120 120" fill="none" xmlns="http://www.w3.org/2000/svg">
<g filter="url(#filter0_d_145_14)">
<rect x="20" y="10" width="80" height="80" rx="40" fill="#090A0C" shape-rendering="crispEdges"/>
<rect x="20.5" y="10.5" width="79" height="79" rx="39.5" stroke="#F44336" shape-rendering="crispEdges"/>
<g filter="url(#filter1_d_145_14)">
<path d="M59.021 69.756C59.2795 70.02 59.6315 70.1666 60 70.1666C60.3685 70.1666 60.7205 70.02 60.979 69.756L78.568 51.9341C85.9032 44.5036 80.691 31.6666 70.2594 31.6666C63.9949 31.6666 61.1202 36.2701 60 37.13C58.8744 36.2665 56.018 31.6666 49.7407 31.6666C39.342 31.6666 34.0657 44.4706 41.4339 51.9341L59.021 69.756Z" fill="#F44336"/>
</g>
</g>
<defs>
<filter id="filter0_d_145_14" x="0" y="0" width="120" height="120" filterUnits="userSpaceOnUse" color-interpolation-filters="sRGB">
<feFlood flood-opacity="0" result="BackgroundImageFix"/>
<feColorMatrix in="SourceAlpha" type="matrix" values="0 0 0 0 0 0 0 0 0 0 0 0 0 0 0 0 0 0 127 0" result="hardAlpha"/>
<feOffset dy="10"/>
<feGaussianBlur stdDeviation="10"/>
<feComposite in2="hardAlpha" operator="out"/>
<feColorMatrix type="matrix" values="0 0 0 0 0.956863 0 0 0 0 0.262745 0 0 0 0 0.211765 0 0 0 0.25 0"/>
<feBlend mode="normal" in2="BackgroundImageFix" result="effect1_dropShadow_145_14"/>
<feBlend mode="normal" in="SourceGraphic" in2="effect1_dropShadow_145_14" result="shape"/>
</filter>
<filter id="filter1_d_145_14" x="27.9982" y="31.6666" width="63.9974" height="58.4999" filterUnits="userSpaceOnUse" color-interpolation-filters="sRGB">
<feFlood flood-opacity="0" result="BackgroundImageFix"/>
<feColorMatrix in="SourceAlpha" type="matrix" values="0 0 0 0 0 0 0 0 0 0 0 0 0 0 0 0 0 0 127 0" result="hardAlpha"/>
<feOffset dy="10"/>
<feGaussianBlur stdDeviation="5"/>
<feComposite in2="hardAlpha" operator="out"/>
<feColorMatrix type="matrix" values="0 0 0 0 0.956863 0 0 0 0 0.262745 0 0 0 0 0.211765 0 0 0 0.25 0"/>
<feBlend mode="normal" in2="BackgroundImageFix" result="effect1_dropShadow_145_14"/>
<feBlend mode="normal" in="SourceGraphic" in2="effect1_dropShadow_145_14" result="shape"/>
</filter>
</defs>
</svg>
