<svg width="22" height="16" viewBox="0 0 22 16" fill="none" xmlns="http://www.w3.org/2000/svg">
<path d="M14.003 5.12861e-07C14.262 5.12861e-07 14.587 0.0680005 14.848 0.132C15.758 0.352 16.837 0.625 17.603 1.2C18.316 1.735 18.87 2.668 19.298 3.616C20.188 5.591 20.807 8.224 21.021 10.226C21.123 11.176 21.148 12.132 20.965 12.775C20.875 13.091 20.68 13.329 20.543 13.475C20.125 13.918 19.587 14.249 19.055 14.55L18.791 14.699C18.6171 14.7957 18.4421 14.8904 18.266 14.983L17.744 15.253L17.027 15.61L16.45 15.894C16.2389 15.9998 15.9971 16.0274 15.7675 15.972C15.538 15.9166 15.3354 15.7817 15.1958 15.5913C15.0561 15.4008 14.9883 15.1671 15.0045 14.9315C15.0207 14.6959 15.1197 14.4736 15.284 14.304L14.85 13.436C13.676 13.8 12.369 14 11 14C9.63001 14 8.32301 13.8 7.15001 13.436L6.71701 14.302C6.88197 14.4713 6.98162 14.6936 6.99827 14.9294C7.01493 15.1652 6.94752 15.3992 6.808 15.5901C6.66848 15.7809 6.46588 15.9161 6.23614 15.9717C6.0064 16.0274 5.76438 15.9998 5.55301 15.894L5.00901 15.624C4.40501 15.326 3.80101 15.028 3.21301 14.699C2.59901 14.356 1.94801 13.991 1.46101 13.474C1.26667 13.2776 1.122 13.0376 1.03901 12.774C0.855014 12.132 0.881014 11.177 0.982014 10.226C1.19601 8.224 1.81501 5.591 2.70601 3.616C3.13301 2.668 3.68701 1.735 4.40001 1.2C5.16601 0.625 6.24501 0.352 7.15501 0.132C7.41601 0.0680005 7.74001 5.12861e-07 8.00001 5.12861e-07C8.14383 -0.000123685 8.28599 0.0307758 8.41678 0.090591C8.54757 0.150406 8.66392 0.23773 8.75789 0.346604C8.85187 0.455478 8.92125 0.583341 8.96131 0.721469C9.00136 0.859598 9.01116 1.00474 8.99001 1.147C9.65548 1.04854 10.3273 0.999405 11 1C11.691 1 12.366 1.05 13.014 1.148C12.9927 1.00567 13.0024 0.860414 13.0424 0.722162C13.0824 0.583911 13.1517 0.455919 13.2457 0.34693C13.3397 0.237941 13.4561 0.150524 13.587 0.0906496C13.7178 0.0307753 13.8591 -0.000145235 14.003 5.12861e-07ZM15.357 2.363C15.207 2.315 15.171 2.336 15.117 2.426L15.055 2.538C14.8934 2.81506 14.648 3.03367 14.3542 3.16234C14.0603 3.29102 13.7332 3.32311 13.42 3.254C12.6247 3.08328 11.8134 2.99813 11 3C10.148 3 9.33301 3.09 8.58001 3.254C8.26678 3.32311 7.9397 3.29102 7.64588 3.16234C7.35205 3.03367 7.10665 2.81506 6.94501 2.538L6.88301 2.427C6.83001 2.337 6.79401 2.316 6.64501 2.363C6.28901 2.476 5.90701 2.597 5.60001 2.8C5.31301 3.015 4.93001 3.55 4.52901 4.439C3.76301 6.136 3.16301 8.643 2.97101 10.439C2.93101 10.818 2.91001 11.143 2.90501 11.411V11.705C2.90901 11.883 2.92201 12.024 2.94001 12.127C3.19401 12.375 3.50801 12.57 3.82301 12.749L4.50501 13.126L4.95101 13.361L5.31501 12.633C5.13878 12.4688 5.02774 12.2465 5.00231 12.007C4.97688 11.7674 5.03877 11.5268 5.17659 11.3292C5.31442 11.1317 5.51892 10.9905 5.7525 10.9317C5.98609 10.8728 6.23306 10.9003 6.44801 11.009C7.66401 11.62 9.24601 12 11 12C12.753 12 14.336 11.618 15.552 11.01C15.7578 10.9069 15.9928 10.878 16.2175 10.928C16.4421 10.9781 16.6426 11.1041 16.7851 11.2848C16.9276 11.4655 17.0035 11.6899 16.9998 11.92C16.9961 12.1501 16.9132 12.3719 16.765 12.548L16.685 12.633L17.049 13.363C17.347 13.209 17.646 13.046 17.946 12.88C18.336 12.664 18.746 12.437 19.063 12.127C19.081 12.024 19.093 11.883 19.098 11.705V11.411C19.0899 11.0859 19.0679 10.7612 19.032 10.438C18.84 8.643 18.24 6.136 17.474 4.438C17.074 3.55 16.69 3.015 16.404 2.8C16.096 2.597 15.714 2.476 15.357 2.363ZM7.75001 6.5C8.21414 6.5 8.65926 6.68437 8.98745 7.01256C9.31564 7.34075 9.50001 7.78587 9.50001 8.25C9.50001 8.71413 9.31564 9.15925 8.98745 9.48744C8.65926 9.81563 8.21414 10 7.75001 10C7.28589 10 6.84077 9.81563 6.51258 9.48744C6.18439 9.15925 6.00001 8.71413 6.00001 8.25C6.00001 7.78587 6.18439 7.34075 6.51258 7.01256C6.84077 6.68437 7.28589 6.5 7.75001 6.5ZM14.25 6.5C14.7141 6.5 15.1593 6.68437 15.4875 7.01256C15.8156 7.34075 16 7.78587 16 8.25C16 8.71413 15.8156 9.15925 15.4875 9.48744C15.1593 9.81563 14.7141 10 14.25 10C13.7859 10 13.3408 9.81563 13.0126 9.48744C12.6844 9.15925 12.5 8.71413 12.5 8.25C12.5 7.78587 12.6844 7.34075 13.0126 7.01256C13.3408 6.68437 13.7859 6.5 14.25 6.5Z" fill="#DEF0FF"/>
</svg>
