<svg width="18" height="20" viewBox="0 0 18 20" fill="none" xmlns="http://www.w3.org/2000/svg">
<path fill-rule="evenodd" clip-rule="evenodd" d="M8.5 0.133975C8.65202 0.0462062 8.82446 0 9 0C9.17554 0 9.34798 0.0462062 9.5 0.133975L11.5 1.28897C11.7278 1.42253 11.8935 1.64076 11.961 1.89606C12.0285 2.15135 11.9923 2.42298 11.8603 2.65167C11.7282 2.88036 11.5111 3.04754 11.2563 3.11672C11.0014 3.18591 10.7296 3.15149 10.5 3.02097L10 2.73197V3.99997C10 4.26519 9.89464 4.51954 9.70711 4.70708C9.51957 4.89462 9.26522 4.99997 9 4.99997C8.73478 4.99997 8.48043 4.89462 8.29289 4.70708C8.10536 4.51954 8 4.26519 8 3.99997V2.73197L7.5 3.02097C7.27044 3.15149 6.99858 3.18591 6.74374 3.11672C6.48889 3.04754 6.27176 2.88036 6.13973 2.65167C6.00769 2.42298 5.97147 2.15135 6.03896 1.89606C6.10646 1.64076 6.27219 1.42253 6.5 1.28897L8.5 0.133975ZM4.072 3.84497C4.2046 4.07465 4.24054 4.3476 4.1719 4.60377C4.10326 4.85995 3.93567 5.07836 3.706 5.21097L3.206 5.49997L4.304 6.13397C4.41865 6.19916 4.51927 6.28637 4.60007 6.3906C4.68087 6.49483 4.74026 6.61401 4.77481 6.74128C4.80936 6.86855 4.8184 7.00141 4.8014 7.13218C4.78441 7.26296 4.74171 7.38909 4.67577 7.5033C4.60982 7.61751 4.52194 7.71755 4.41718 7.79766C4.31242 7.87777 4.19285 7.93636 4.06535 7.97007C3.93785 8.00378 3.80494 8.01194 3.67428 7.99407C3.54361 7.97621 3.41777 7.93267 3.304 7.86597L2.206 7.23197V7.80897C2.206 8.07419 2.10064 8.32854 1.91311 8.51608C1.72557 8.70362 1.47122 8.80897 1.206 8.80897C0.940785 8.80897 0.686431 8.70362 0.498894 8.51608C0.311358 8.32854 0.206001 8.07419 0.206001 7.80897V5.49997C0.206181 5.32461 0.252473 5.15238 0.340232 5.00056C0.427991 4.84873 0.554133 4.72266 0.706001 4.63497L2.706 3.47997C2.93568 3.34737 3.20863 3.31144 3.4648 3.38008C3.72097 3.44871 3.93939 3.6163 4.072 3.84597V3.84497ZM13.928 3.84497C14.0606 3.6153 14.279 3.44771 14.5352 3.37908C14.7914 3.31044 15.0643 3.34637 15.294 3.47897L17.294 4.63397C17.446 4.72174 17.5723 4.84797 17.66 4.99999C17.7478 5.152 17.794 5.32444 17.794 5.49997V7.80997C17.794 8.07519 17.6886 8.32955 17.5011 8.51708C17.3136 8.70462 17.0592 8.80997 16.794 8.80997C16.5288 8.80997 16.2744 8.70462 16.0869 8.51708C15.8994 8.32955 15.794 8.07519 15.794 7.80997V7.23197L14.696 7.86597C14.4664 7.99649 14.1946 8.03091 13.9397 7.96172C13.6849 7.89254 13.4678 7.72536 13.3357 7.49667C13.2037 7.26798 13.1675 6.99635 13.235 6.74106C13.3025 6.48576 13.4682 6.26752 13.696 6.13397L14.794 5.49997L14.294 5.21097C14.0643 5.07836 13.8967 4.85995 13.8281 4.60377C13.7595 4.3476 13.7954 4.07465 13.928 3.84497ZM5.536 7.99997C5.66861 7.7703 5.88703 7.60271 6.1432 7.53407C6.39937 7.46544 6.67232 7.50137 6.902 7.63397L9 8.84497L11.098 7.63397C11.3276 7.50346 11.5994 7.46904 11.8543 7.53823C12.1091 7.60741 12.3262 7.77459 12.4583 8.00328C12.5903 8.23197 12.6265 8.5036 12.559 8.75889C12.4915 9.01419 12.3258 9.23242 12.098 9.36597L10 10.577V13C10 13.2652 9.89464 13.5195 9.70711 13.7071C9.51957 13.8946 9.26522 14 9 14C8.73478 14 8.48043 13.8946 8.29289 13.7071C8.10536 13.5195 8 13.2652 8 13V10.577L5.902 9.36597C5.67233 9.23336 5.50474 9.01495 5.4361 8.75877C5.36746 8.5026 5.4034 8.22965 5.536 7.99997ZM1.206 11.19C1.47122 11.19 1.72557 11.2953 1.91311 11.4829C2.10064 11.6704 2.206 11.9248 2.206 12.19V12.768L3.304 12.134C3.53356 12.0035 3.80542 11.969 4.06027 12.0382C4.31511 12.1074 4.53224 12.2746 4.66428 12.5033C4.79631 12.732 4.83253 13.0036 4.76504 13.2589C4.69754 13.5142 4.53181 13.7324 4.304 13.866L3.206 14.5L3.706 14.789C3.82065 14.8542 3.92127 14.9414 4.00207 15.0456C4.08287 15.1498 4.14226 15.269 4.17681 15.3963C4.21136 15.5236 4.2204 15.6564 4.2034 15.7872C4.18641 15.918 4.14371 16.0441 4.07776 16.1583C4.01182 16.2725 3.92394 16.3726 3.81918 16.4527C3.71442 16.5328 3.59485 16.5914 3.46735 16.6251C3.33985 16.6588 3.20694 16.6669 3.07628 16.6491C2.94561 16.6312 2.81977 16.5877 2.706 16.521L0.706001 15.366C0.553986 15.2782 0.42775 15.152 0.339982 15C0.252214 14.8479 0.206006 14.6755 0.206001 14.5V12.19C0.206001 11.9248 0.311358 11.6704 0.498894 11.4829C0.686431 11.2953 0.940785 11.19 1.206 11.19ZM16.794 11.19C17.0592 11.19 17.3136 11.2953 17.5011 11.4829C17.6886 11.6704 17.794 11.9248 17.794 12.19V14.5C17.794 14.6755 17.7478 14.8479 17.66 15C17.5723 15.152 17.446 15.2782 17.294 15.366L15.294 16.521C15.1802 16.5877 15.0544 16.6312 14.9237 16.6491C14.7931 16.6669 14.6602 16.6588 14.5327 16.6251C14.4052 16.5914 14.2856 16.5328 14.1808 16.4527C14.0761 16.3726 13.9882 16.2725 13.9222 16.1583C13.8563 16.0441 13.8136 15.918 13.7966 15.7872C13.7796 15.6564 13.7886 15.5236 13.8232 15.3963C13.8577 15.269 13.9171 15.1498 13.9979 15.0456C14.0787 14.9414 14.1794 14.8542 14.294 14.789L14.794 14.5L13.696 13.866C13.5814 13.8008 13.4807 13.7136 13.3999 13.6093C13.3191 13.5051 13.2597 13.3859 13.2252 13.2587C13.1906 13.1314 13.1816 12.9985 13.1986 12.8678C13.2156 12.737 13.2583 12.6109 13.3242 12.4966C13.3902 12.3824 13.4781 12.2824 13.5828 12.2023C13.6876 12.1222 13.8072 12.0636 13.9347 12.0299C14.0622 11.9962 14.1951 11.988 14.3257 12.0059C14.4564 12.0237 14.5822 12.0673 14.696 12.134L15.794 12.768V12.191C15.794 11.9258 15.8994 11.6714 16.0869 11.4839C16.2744 11.2963 16.5288 11.191 16.794 11.191V11.19ZM9 15C9.26522 15 9.51957 15.1053 9.70711 15.2929C9.89464 15.4804 10 15.7348 10 16V17.268L10.5 16.979C10.6138 16.9123 10.7396 16.8687 10.8703 16.8509C11.0009 16.833 11.1338 16.8412 11.2613 16.8749C11.3888 16.9086 11.5084 16.9672 11.6132 17.0473C11.7179 17.1274 11.8058 17.2274 11.8718 17.3416C11.9377 17.4559 11.9804 17.582 11.9974 17.7128C12.0144 17.8435 12.0054 17.9764 11.9708 18.1037C11.9363 18.2309 11.8769 18.3501 11.7961 18.4543C11.7153 18.5586 11.6146 18.6458 11.5 18.711L9.5 19.866C9.34798 19.9537 9.17554 20 9 20C8.82446 20 8.65202 19.9537 8.5 19.866L6.5 18.711C6.38536 18.6458 6.28474 18.5586 6.20393 18.4543C6.12313 18.3501 6.06374 18.2309 6.02919 18.1037C5.99464 17.9764 5.9856 17.8435 6.0026 17.7128C6.0196 17.582 6.0623 17.4559 6.12824 17.3416C6.19418 17.2274 6.28206 17.1274 6.38682 17.0473C6.49158 16.9672 6.61116 16.9086 6.73866 16.8749C6.86615 16.8412 6.99906 16.833 7.12973 16.8509C7.26039 16.8687 7.38623 16.9123 7.5 16.979L8 17.268V16C8 15.7348 8.10536 15.4804 8.29289 15.2929C8.48043 15.1053 8.73478 15 9 15Z" fill="#EAF2FF"/>
</svg>
