<svg width="327" height="213" viewBox="0 0 327 213" fill="none" xmlns="http://www.w3.org/2000/svg">
<rect x="0.5" y="0.5" width="326" height="212" rx="15.5" fill="url(#paint0_linear_76_777)"/>
<rect x="0.5" y="0.5" width="326" height="212" rx="15.5" stroke="#3F576B"/>
<rect x="20.5" y="20.5" width="286" height="31" rx="11.5" stroke="#3CCB97"/>
<path d="M99.764 37.888V30.432H101.332V37.792C101.332 39.648 102.356 40.672 104.196 40.672C106.02 40.672 107.028 39.632 107.028 37.792V30.432H108.612V37.888C108.612 40.544 106.916 42.192 104.196 42.192C101.46 42.192 99.764 40.56 99.764 37.888ZM112.467 42H110.963V34.176H112.323L112.483 35.376C112.979 34.48 113.971 33.952 115.075 33.952C117.139 33.952 118.083 35.216 118.083 37.216V42H116.579V37.552C116.579 35.968 115.843 35.328 114.691 35.328C113.283 35.328 112.467 36.336 112.467 37.856V42ZM123.302 42.192C121.03 42.192 119.654 40.496 119.654 38.112C119.654 35.712 121.046 33.952 123.366 33.952C124.566 33.952 125.574 34.48 126.102 35.44V30.224H127.59V42H126.246L126.118 40.576C125.606 41.648 124.55 42.192 123.302 42.192ZM123.606 40.832C125.142 40.832 126.086 39.696 126.086 38.064C126.086 36.464 125.142 35.312 123.606 35.312C122.07 35.312 121.174 36.464 121.174 38.064C121.174 39.68 122.07 40.832 123.606 40.832ZM133.136 42.192C130.832 42.192 129.248 40.528 129.248 38.096C129.248 35.648 130.8 33.952 133.072 33.952C135.296 33.952 136.752 35.488 136.752 37.808V38.368L130.704 38.384C130.816 40.032 131.68 40.944 133.168 40.944C134.336 40.944 135.104 40.464 135.36 39.568H136.768C136.384 41.248 135.072 42.192 133.136 42.192ZM133.072 35.216C131.76 35.216 130.928 36 130.736 37.376H135.248C135.248 36.08 134.4 35.216 133.072 35.216ZM142.912 34.112V35.488H142.24C140.816 35.488 139.936 36.352 139.936 37.856V42H138.432V34.192H139.84L139.936 35.376C140.256 34.56 141.04 34.016 142.112 34.016C142.384 34.016 142.608 34.048 142.912 34.112ZM145.858 42H144.354V30.224H145.858V42ZM147.32 45.504V44.272H148.328C149.048 44.272 149.624 44.16 149.992 43.168L150.264 42.416L147.112 34.176H148.696L150.968 40.48L153.288 34.176H154.84L151.144 43.76C150.616 45.104 149.832 45.664 148.632 45.664C148.136 45.664 147.72 45.6 147.32 45.504ZM156.777 32.32C156.233 32.32 155.785 31.872 155.785 31.328C155.785 30.768 156.233 30.336 156.777 30.336C157.321 30.336 157.769 30.768 157.769 31.328C157.769 31.872 157.321 32.32 156.777 32.32ZM156.041 42V34.176H157.545V42H156.041ZM161.233 42H159.729V34.176H161.089L161.249 35.376C161.745 34.48 162.737 33.952 163.841 33.952C165.905 33.952 166.849 35.216 166.849 37.216V42H165.345V37.552C165.345 35.968 164.609 35.328 163.457 35.328C162.049 35.328 161.233 36.336 161.233 37.856V42ZM168.436 37.888C168.436 35.68 169.86 33.952 172.132 33.952C173.396 33.952 174.372 34.528 174.868 35.504L174.98 34.176H176.324V41.68C176.324 44.144 174.804 45.712 172.404 45.712C170.276 45.712 168.82 44.512 168.532 42.528H170.036C170.228 43.68 171.092 44.352 172.404 44.352C173.876 44.352 174.836 43.392 174.836 41.904V40.336C174.324 41.248 173.3 41.792 172.068 41.792C169.844 41.792 168.436 40.08 168.436 37.888ZM169.94 37.856C169.94 39.328 170.852 40.48 172.324 40.48C173.844 40.48 174.772 39.392 174.772 37.856C174.772 36.352 173.876 35.264 172.34 35.264C170.836 35.264 169.94 36.416 169.94 37.856ZM183.605 42H181.973L186.197 30.432H187.941L192.181 42H190.533L189.493 39.12H184.629L183.605 42ZM186.869 32.928L185.109 37.76H189.029L187.253 32.928C187.173 32.704 187.093 32.432 187.061 32.256C187.029 32.416 186.949 32.688 186.869 32.928ZM192.823 39.728H194.263C194.263 40.528 194.871 41.008 195.863 41.008C196.919 41.008 197.527 40.576 197.527 39.856C197.527 39.328 197.271 39.008 196.455 38.8L195.079 38.48C193.687 38.144 193.031 37.456 193.031 36.304C193.031 34.864 194.247 33.952 195.975 33.952C197.687 33.952 198.807 34.912 198.839 36.4H197.399C197.367 35.616 196.839 35.12 195.927 35.12C194.983 35.12 194.455 35.536 194.455 36.256C194.455 36.784 194.839 37.136 195.607 37.328L196.983 37.664C198.311 37.984 198.967 38.592 198.967 39.76C198.967 41.248 197.687 42.192 195.831 42.192C193.991 42.192 192.823 41.216 192.823 39.728ZM199.995 39.728H201.435C201.435 40.528 202.043 41.008 203.035 41.008C204.091 41.008 204.699 40.576 204.699 39.856C204.699 39.328 204.443 39.008 203.627 38.8L202.251 38.48C200.859 38.144 200.203 37.456 200.203 36.304C200.203 34.864 201.419 33.952 203.147 33.952C204.859 33.952 205.979 34.912 206.011 36.4H204.571C204.539 35.616 204.011 35.12 203.099 35.12C202.155 35.12 201.627 35.536 201.627 36.256C201.627 36.784 202.011 37.136 202.779 37.328L204.155 37.664C205.483 37.984 206.139 38.592 206.139 39.76C206.139 41.248 204.859 42.192 203.003 42.192C201.163 42.192 199.995 41.216 199.995 39.728ZM211.183 42.192C208.879 42.192 207.295 40.528 207.295 38.096C207.295 35.648 208.847 33.952 211.119 33.952C213.343 33.952 214.799 35.488 214.799 37.808V38.368L208.751 38.384C208.863 40.032 209.727 40.944 211.215 40.944C212.383 40.944 213.151 40.464 213.407 39.568H214.815C214.431 41.248 213.119 42.192 211.183 42.192ZM211.119 35.216C209.807 35.216 208.975 36 208.783 37.376H213.295C213.295 36.08 212.447 35.216 211.119 35.216ZM218.609 42H217.105V35.44H215.569V34.176H217.105V31.728H218.609V34.176H220.145V35.44H218.609V42ZM220.854 39.728H222.294C222.294 40.528 222.902 41.008 223.894 41.008C224.95 41.008 225.558 40.576 225.558 39.856C225.558 39.328 225.302 39.008 224.486 38.8L223.11 38.48C221.718 38.144 221.062 37.456 221.062 36.304C221.062 34.864 222.278 33.952 224.006 33.952C225.718 33.952 226.838 34.912 226.87 36.4H225.43C225.398 35.616 224.87 35.12 223.958 35.12C223.014 35.12 222.486 35.536 222.486 36.256C222.486 36.784 222.87 37.136 223.638 37.328L225.014 37.664C226.342 37.984 226.998 38.592 226.998 39.76C226.998 41.248 225.718 42.192 223.862 42.192C222.022 42.192 220.854 41.216 220.854 39.728Z" fill="#3CCB97"/>
<path fill-rule="evenodd" clip-rule="evenodd" d="M52.0071 65C42.8965 65 35.5 72.3966 35.5 81.5071C35.5 90.6176 42.8966 98.0141 52.0071 98.0141C61.1176 98.0141 68.5141 90.6175 68.5141 81.5071C68.5141 72.3965 61.1175 65 52.0071 65ZM52.0071 66.4181C60.3349 66.4181 67.096 73.1793 67.096 81.5071C67.096 89.8349 60.3349 96.596 52.0071 96.596C43.6793 96.596 36.9181 89.8349 36.9181 81.5071C36.9181 73.1793 43.6793 66.4181 52.0071 66.4181ZM52.0068 70.1619C45.7453 70.1619 40.6617 75.2455 40.6617 81.5071C40.6617 87.7687 45.7453 92.8523 52.0068 92.8523C58.2684 92.8523 63.352 87.7687 63.352 81.5071C63.352 75.2455 58.2684 70.1619 52.0068 70.1619ZM52.0068 71.5801C57.4857 71.5801 61.9338 76.0282 61.9338 81.507C61.9338 86.9859 57.4857 91.4341 52.0068 91.4341C46.528 91.4341 42.0799 86.986 42.0799 81.507C42.0799 76.0282 46.528 71.5801 52.0068 71.5801ZM49.0357 79.6248L47.8847 82.922C47.7557 83.2915 47.951 83.6962 48.3205 83.8251C48.69 83.9541 49.0947 83.7589 49.2236 83.3894L50.3746 80.0922C50.5036 79.7227 50.3083 79.318 49.9388 79.189C49.5694 79.0601 49.1647 79.2553 49.0357 79.6248ZM54.7905 79.6248L53.6395 82.922C53.5106 83.2915 53.7058 83.6962 54.0753 83.8251C54.4448 83.9541 54.8495 83.7589 54.9784 83.3894L56.1294 80.0922C56.2584 79.7227 56.0631 79.318 55.6936 79.189C55.3242 79.0601 54.9195 79.2553 54.7905 79.6248ZM51.9131 79.6248L50.7621 82.922C50.6331 83.2915 50.8284 83.6962 51.1979 83.8251C51.5674 83.9541 51.9721 83.7589 52.101 83.3894L53.252 80.0922C53.381 79.7227 53.1857 79.318 52.8162 79.189C52.4468 79.0601 52.0421 79.2553 51.9131 79.6248Z" fill="url(#paint1_linear_76_777)"/>
<g clip-path="url(#clip0_76_777)">
<path d="M51.5 121.243L47.55 117.293C47.4577 117.197 47.3474 117.121 47.2254 117.069C47.1034 117.016 46.9722 116.989 46.8394 116.988C46.7066 116.987 46.5749 117.012 46.452 117.062C46.3291 117.112 46.2175 117.187 46.1236 117.281C46.0297 117.374 45.9554 117.486 45.9052 117.609C45.8549 117.732 45.8296 117.864 45.8307 117.996C45.8319 118.129 45.8595 118.26 45.9119 118.382C45.9643 118.504 46.0405 118.615 46.136 118.707L51.793 124.364C51.9805 124.551 52.2348 124.657 52.5 124.657C52.7651 124.657 53.0194 124.551 53.207 124.364L58.864 118.707C59.0461 118.518 59.1469 118.266 59.1447 118.004C59.1424 117.741 59.0372 117.491 58.8518 117.305C58.6664 117.12 58.4156 117.015 58.1534 117.012C57.8912 117.01 57.6386 117.111 57.45 117.293L53.5 121.243V108C53.5 107.735 53.3946 107.48 53.2071 107.293C53.0195 107.105 52.7652 107 52.5 107C52.2348 107 51.9804 107.105 51.7929 107.293C51.6053 107.48 51.5 107.735 51.5 108V121.243Z" fill="#74A6FF"/>
</g>
<rect x="21" y="132.5" width="63" height="63" rx="31.5" stroke="#2F7AFF"/>
<path d="M52.5 164.563C55.7102 164.563 58.3125 161.96 58.3125 158.75C58.3125 155.54 55.7102 152.938 52.5 152.938C49.2898 152.938 46.6875 155.54 46.6875 158.75C46.6875 161.96 49.2898 164.563 52.5 164.563Z" fill="url(#paint2_linear_76_777)"/>
<path d="M54 165.688H51C49.8426 165.687 48.6963 165.914 47.6269 166.357C46.5574 166.8 45.5857 167.449 44.7673 168.267C43.9488 169.086 43.2997 170.057 42.8571 171.127C42.4144 172.196 42.1869 173.343 42.1875 174.5V175.063H62.8125V174.5C62.8099 172.164 61.8806 169.924 60.2285 168.272C58.5764 166.619 56.3364 165.69 54 165.688Z" fill="url(#paint3_linear_76_777)"/>
<path fill-rule="evenodd" clip-rule="evenodd" d="M126.007 65C116.897 65 109.5 72.3966 109.5 81.5071C109.5 90.6176 116.897 98.0141 126.007 98.0141C135.118 98.0141 142.514 90.6175 142.514 81.5071C142.514 72.3965 135.118 65 126.007 65ZM126.007 66.4181C134.335 66.4181 141.096 73.1793 141.096 81.5071C141.096 89.8349 134.335 96.596 126.007 96.596C117.679 96.596 110.918 89.8349 110.918 81.5071C110.918 73.1793 117.679 66.4181 126.007 66.4181ZM126.007 70.1619C119.745 70.1619 114.662 75.2455 114.662 81.5071C114.662 87.7687 119.745 92.8523 126.007 92.8523C132.268 92.8523 137.352 87.7687 137.352 81.5071C137.352 75.2455 132.268 70.1619 126.007 70.1619ZM126.007 71.5801C131.486 71.5801 135.934 76.0282 135.934 81.507C135.934 86.9859 131.486 91.4341 126.007 91.4341C120.528 91.4341 116.08 86.986 116.08 81.507C116.08 76.0282 120.528 71.5801 126.007 71.5801ZM123.036 79.6248L121.885 82.922C121.756 83.2915 121.951 83.6962 122.32 83.8251C122.69 83.9541 123.095 83.7589 123.224 83.3894L124.375 80.0922C124.504 79.7227 124.308 79.318 123.939 79.189C123.569 79.0601 123.165 79.2553 123.036 79.6248ZM128.79 79.6248L127.64 82.922C127.511 83.2915 127.706 83.6962 128.075 83.8251C128.445 83.9541 128.849 83.7589 128.978 83.3894L130.129 80.0922C130.258 79.7227 130.063 79.318 129.694 79.189C129.324 79.0601 128.919 79.2553 128.79 79.6248ZM125.913 79.6248L124.762 82.922C124.633 83.2915 124.828 83.6962 125.198 83.8251C125.567 83.9541 125.972 83.7589 126.101 83.3894L127.252 80.0922C127.381 79.7227 127.186 79.318 126.816 79.189C126.447 79.0601 126.042 79.2553 125.913 79.6248Z" fill="url(#paint4_linear_76_777)"/>
<g clip-path="url(#clip1_76_777)">
<path d="M125.5 121.243L121.55 117.293C121.458 117.197 121.347 117.121 121.225 117.069C121.103 117.016 120.972 116.989 120.839 116.988C120.707 116.987 120.575 117.012 120.452 117.062C120.329 117.112 120.218 117.187 120.124 117.281C120.03 117.374 119.955 117.486 119.905 117.609C119.855 117.732 119.83 117.864 119.831 117.996C119.832 118.129 119.859 118.26 119.912 118.382C119.964 118.504 120.04 118.615 120.136 118.707L125.793 124.364C125.981 124.551 126.235 124.657 126.5 124.657C126.765 124.657 127.019 124.551 127.207 124.364L132.864 118.707C133.046 118.518 133.147 118.266 133.145 118.004C133.142 117.741 133.037 117.491 132.852 117.305C132.666 117.12 132.416 117.015 132.153 117.012C131.891 117.01 131.639 117.111 131.45 117.293L127.5 121.243V108C127.5 107.735 127.395 107.48 127.207 107.293C127.02 107.105 126.765 107 126.5 107C126.235 107 125.98 107.105 125.793 107.293C125.605 107.48 125.5 107.735 125.5 108V121.243Z" fill="#74A6FF"/>
</g>
<rect x="95" y="132.5" width="63" height="63" rx="31.5" stroke="#2F7AFF"/>
<path d="M126.5 164.563C129.71 164.563 132.313 161.96 132.313 158.75C132.313 155.54 129.71 152.938 126.5 152.938C123.29 152.938 120.688 155.54 120.688 158.75C120.688 161.96 123.29 164.563 126.5 164.563Z" fill="url(#paint5_linear_76_777)"/>
<path d="M128 165.688H125C123.843 165.687 122.696 165.914 121.627 166.357C120.557 166.8 119.586 167.449 118.767 168.267C117.949 169.086 117.3 170.057 116.857 171.127C116.414 172.196 116.187 173.343 116.188 174.5V175.063H136.813V174.5C136.81 172.164 135.881 169.924 134.228 168.272C132.576 166.619 130.336 165.69 128 165.688Z" fill="url(#paint6_linear_76_777)"/>
<path fill-rule="evenodd" clip-rule="evenodd" d="M200.007 65C190.897 65 183.5 72.3966 183.5 81.5071C183.5 90.6176 190.897 98.0141 200.007 98.0141C209.118 98.0141 216.514 90.6175 216.514 81.5071C216.514 72.3965 209.118 65 200.007 65ZM200.007 66.4181C208.335 66.4181 215.096 73.1793 215.096 81.5071C215.096 89.8349 208.335 96.596 200.007 96.596C191.679 96.596 184.918 89.8349 184.918 81.5071C184.918 73.1793 191.679 66.4181 200.007 66.4181ZM200.007 70.1619C193.745 70.1619 188.662 75.2455 188.662 81.5071C188.662 87.7687 193.745 92.8523 200.007 92.8523C206.268 92.8523 211.352 87.7687 211.352 81.5071C211.352 75.2455 206.268 70.1619 200.007 70.1619ZM200.007 71.5801C205.486 71.5801 209.934 76.0282 209.934 81.507C209.934 86.9859 205.486 91.4341 200.007 91.4341C194.528 91.4341 190.08 86.986 190.08 81.507C190.08 76.0282 194.528 71.5801 200.007 71.5801ZM197.036 79.6248L195.885 82.922C195.756 83.2915 195.951 83.6962 196.32 83.8251C196.69 83.9541 197.095 83.7589 197.224 83.3894L198.375 80.0922C198.504 79.7227 198.308 79.318 197.939 79.189C197.569 79.0601 197.165 79.2553 197.036 79.6248ZM202.79 79.6248L201.64 82.922C201.511 83.2915 201.706 83.6962 202.075 83.8251C202.445 83.9541 202.849 83.7589 202.978 83.3894L204.129 80.0922C204.258 79.7227 204.063 79.318 203.694 79.189C203.324 79.0601 202.919 79.2553 202.79 79.6248ZM199.913 79.6248L198.762 82.922C198.633 83.2915 198.828 83.6962 199.198 83.8251C199.567 83.9541 199.972 83.7589 200.101 83.3894L201.252 80.0922C201.381 79.7227 201.186 79.318 200.816 79.189C200.447 79.0601 200.042 79.2553 199.913 79.6248Z" fill="url(#paint7_linear_76_777)"/>
<g clip-path="url(#clip2_76_777)">
<path d="M199.5 121.243L195.55 117.293C195.458 117.197 195.347 117.121 195.225 117.069C195.103 117.016 194.972 116.989 194.839 116.988C194.707 116.987 194.575 117.012 194.452 117.062C194.329 117.112 194.218 117.187 194.124 117.281C194.03 117.374 193.955 117.486 193.905 117.609C193.855 117.732 193.83 117.864 193.831 117.996C193.832 118.129 193.859 118.26 193.912 118.382C193.964 118.504 194.04 118.615 194.136 118.707L199.793 124.364C199.981 124.551 200.235 124.657 200.5 124.657C200.765 124.657 201.019 124.551 201.207 124.364L206.864 118.707C207.046 118.518 207.147 118.266 207.145 118.004C207.142 117.741 207.037 117.491 206.852 117.305C206.666 117.12 206.416 117.015 206.153 117.012C205.891 117.01 205.639 117.111 205.45 117.293L201.5 121.243V108C201.5 107.735 201.395 107.48 201.207 107.293C201.02 107.105 200.765 107 200.5 107C200.235 107 199.98 107.105 199.793 107.293C199.605 107.48 199.5 107.735 199.5 108V121.243Z" fill="#74A6FF"/>
</g>
<rect x="169" y="132.5" width="63" height="63" rx="31.5" stroke="#2F7AFF"/>
<path d="M200.5 164.563C203.71 164.563 206.313 161.96 206.313 158.75C206.313 155.54 203.71 152.938 200.5 152.938C197.29 152.938 194.688 155.54 194.688 158.75C194.688 161.96 197.29 164.563 200.5 164.563Z" fill="url(#paint8_linear_76_777)"/>
<path d="M202 165.688H199C197.843 165.687 196.696 165.914 195.627 166.357C194.557 166.8 193.586 167.449 192.767 168.267C191.949 169.086 191.3 170.057 190.857 171.127C190.414 172.196 190.187 173.343 190.188 174.5V175.063H210.813V174.5C210.81 172.164 209.881 169.924 208.228 168.272C206.576 166.619 204.336 165.69 202 165.688Z" fill="url(#paint9_linear_76_777)"/>
<path fill-rule="evenodd" clip-rule="evenodd" d="M274.007 65C264.897 65 257.5 72.3966 257.5 81.5071C257.5 90.6176 264.897 98.0141 274.007 98.0141C283.118 98.0141 290.514 90.6175 290.514 81.5071C290.514 72.3965 283.118 65 274.007 65ZM274.007 66.4181C282.335 66.4181 289.096 73.1793 289.096 81.5071C289.096 89.8349 282.335 96.596 274.007 96.596C265.679 96.596 258.918 89.8349 258.918 81.5071C258.918 73.1793 265.679 66.4181 274.007 66.4181ZM274.007 70.1619C267.745 70.1619 262.662 75.2455 262.662 81.5071C262.662 87.7687 267.745 92.8523 274.007 92.8523C280.268 92.8523 285.352 87.7687 285.352 81.5071C285.352 75.2455 280.268 70.1619 274.007 70.1619ZM274.007 71.5801C279.486 71.5801 283.934 76.0282 283.934 81.507C283.934 86.9859 279.486 91.4341 274.007 91.4341C268.528 91.4341 264.08 86.986 264.08 81.507C264.08 76.0282 268.528 71.5801 274.007 71.5801ZM271.036 79.6248L269.885 82.922C269.756 83.2915 269.951 83.6962 270.32 83.8251C270.69 83.9541 271.095 83.7589 271.224 83.3894L272.375 80.0922C272.504 79.7227 272.308 79.318 271.939 79.189C271.569 79.0601 271.165 79.2553 271.036 79.6248ZM276.79 79.6248L275.64 82.922C275.511 83.2915 275.706 83.6962 276.075 83.8251C276.445 83.9541 276.849 83.7589 276.978 83.3894L278.129 80.0922C278.258 79.7227 278.063 79.318 277.694 79.189C277.324 79.0601 276.919 79.2553 276.79 79.6248ZM273.913 79.6248L272.762 82.922C272.633 83.2915 272.828 83.6962 273.198 83.8251C273.567 83.9541 273.972 83.7589 274.101 83.3894L275.252 80.0922C275.381 79.7227 275.186 79.318 274.816 79.189C274.447 79.0601 274.042 79.2553 273.913 79.6248Z" fill="url(#paint10_linear_76_777)"/>
<g clip-path="url(#clip3_76_777)">
<path d="M273.5 121.243L269.55 117.293C269.458 117.197 269.347 117.121 269.225 117.069C269.103 117.016 268.972 116.989 268.839 116.988C268.707 116.987 268.575 117.012 268.452 117.062C268.329 117.112 268.218 117.187 268.124 117.281C268.03 117.374 267.955 117.486 267.905 117.609C267.855 117.732 267.83 117.864 267.831 117.996C267.832 118.129 267.859 118.26 267.912 118.382C267.964 118.504 268.04 118.615 268.136 118.707L273.793 124.364C273.981 124.551 274.235 124.657 274.5 124.657C274.765 124.657 275.019 124.551 275.207 124.364L280.864 118.707C281.046 118.518 281.147 118.266 281.145 118.004C281.142 117.741 281.037 117.491 280.852 117.305C280.666 117.12 280.416 117.015 280.153 117.012C279.891 117.01 279.639 117.111 279.45 117.293L275.5 121.243V108C275.5 107.735 275.395 107.48 275.207 107.293C275.02 107.105 274.765 107 274.5 107C274.235 107 273.98 107.105 273.793 107.293C273.605 107.48 273.5 107.735 273.5 108V121.243Z" fill="#74A6FF"/>
</g>
<rect x="243" y="132.5" width="63" height="63" rx="31.5" stroke="#2F7AFF"/>
<path d="M274.5 164.563C277.71 164.563 280.313 161.96 280.313 158.75C280.313 155.54 277.71 152.938 274.5 152.938C271.29 152.938 268.688 155.54 268.688 158.75C268.688 161.96 271.29 164.563 274.5 164.563Z" fill="url(#paint11_linear_76_777)"/>
<path d="M276 165.688H273C271.843 165.687 270.696 165.914 269.627 166.357C268.557 166.8 267.586 167.449 266.767 168.267C265.949 169.086 265.3 170.057 264.857 171.127C264.414 172.196 264.187 173.343 264.188 174.5V175.063H284.813V174.5C284.81 172.164 283.881 169.924 282.228 168.272C280.576 166.619 278.336 165.69 276 165.688Z" fill="url(#paint12_linear_76_777)"/>
<defs>
<linearGradient id="paint0_linear_76_777" x1="0" y1="0" x2="358.612" y2="108.917" gradientUnits="userSpaceOnUse">
<stop/>
<stop offset="0.225" stop-color="#08090B"/>
<stop offset="0.675" stop-color="#14336B" stop-opacity="0.3"/>
<stop offset="1"/>
</linearGradient>
<linearGradient id="paint1_linear_76_777" x1="52.0071" y1="65" x2="52.0071" y2="98.0141" gradientUnits="userSpaceOnUse">
<stop stop-color="#2F7AFF"/>
<stop offset="1" stop-color="#96D0FF"/>
</linearGradient>
<linearGradient id="paint2_linear_76_777" x1="52.5" y1="152.938" x2="52.5" y2="164.563" gradientUnits="userSpaceOnUse">
<stop stop-color="#2F7AFF"/>
<stop offset="1" stop-color="#96D0FF"/>
</linearGradient>
<linearGradient id="paint3_linear_76_777" x1="52.5" y1="165.688" x2="52.5" y2="175.063" gradientUnits="userSpaceOnUse">
<stop stop-color="#2F7AFF"/>
<stop offset="1" stop-color="#96D0FF"/>
</linearGradient>
<linearGradient id="paint4_linear_76_777" x1="126.007" y1="65" x2="126.007" y2="98.0141" gradientUnits="userSpaceOnUse">
<stop stop-color="#2F7AFF"/>
<stop offset="1" stop-color="#96D0FF"/>
</linearGradient>
<linearGradient id="paint5_linear_76_777" x1="126.5" y1="152.938" x2="126.5" y2="164.563" gradientUnits="userSpaceOnUse">
<stop stop-color="#2F7AFF"/>
<stop offset="1" stop-color="#96D0FF"/>
</linearGradient>
<linearGradient id="paint6_linear_76_777" x1="126.5" y1="165.688" x2="126.5" y2="175.063" gradientUnits="userSpaceOnUse">
<stop stop-color="#2F7AFF"/>
<stop offset="1" stop-color="#96D0FF"/>
</linearGradient>
<linearGradient id="paint7_linear_76_777" x1="200.007" y1="65" x2="200.007" y2="98.0141" gradientUnits="userSpaceOnUse">
<stop stop-color="#2F7AFF"/>
<stop offset="1" stop-color="#96D0FF"/>
</linearGradient>
<linearGradient id="paint8_linear_76_777" x1="200.5" y1="152.938" x2="200.5" y2="164.563" gradientUnits="userSpaceOnUse">
<stop stop-color="#2F7AFF"/>
<stop offset="1" stop-color="#96D0FF"/>
</linearGradient>
<linearGradient id="paint9_linear_76_777" x1="200.5" y1="165.688" x2="200.5" y2="175.063" gradientUnits="userSpaceOnUse">
<stop stop-color="#2F7AFF"/>
<stop offset="1" stop-color="#96D0FF"/>
</linearGradient>
<linearGradient id="paint10_linear_76_777" x1="274.007" y1="65" x2="274.007" y2="98.0141" gradientUnits="userSpaceOnUse">
<stop stop-color="#2F7AFF"/>
<stop offset="1" stop-color="#96D0FF"/>
</linearGradient>
<linearGradient id="paint11_linear_76_777" x1="274.5" y1="152.938" x2="274.5" y2="164.563" gradientUnits="userSpaceOnUse">
<stop stop-color="#2F7AFF"/>
<stop offset="1" stop-color="#96D0FF"/>
</linearGradient>
<linearGradient id="paint12_linear_76_777" x1="274.5" y1="165.688" x2="274.5" y2="175.063" gradientUnits="userSpaceOnUse">
<stop stop-color="#2F7AFF"/>
<stop offset="1" stop-color="#96D0FF"/>
</linearGradient>
<clipPath id="clip0_76_777">
<rect width="24" height="24" fill="white" transform="translate(40.5 104)"/>
</clipPath>
<clipPath id="clip1_76_777">
<rect width="24" height="24" fill="white" transform="translate(114.5 104)"/>
</clipPath>
<clipPath id="clip2_76_777">
<rect width="24" height="24" fill="white" transform="translate(188.5 104)"/>
</clipPath>
<clipPath id="clip3_76_777">
<rect width="24" height="24" fill="white" transform="translate(262.5 104)"/>
</clipPath>
</defs>
</svg>
