<svg width="120" height="120" viewBox="0 0 120 120" fill="none" xmlns="http://www.w3.org/2000/svg">
<g filter="url(#filter0_d_145_57)">
<rect x="20" y="10" width="80" height="80" rx="40" fill="#090A0C" shape-rendering="crispEdges"/>
<rect x="20.5" y="10.5" width="79" height="79" rx="39.5" stroke="#FFD542" shape-rendering="crispEdges"/>
<g filter="url(#filter1_d_145_57)">
<path d="M44.5821 39.4816L46.8462 40.7893C47.1521 40.9669 47.5501 40.8644 47.7299 40.5527C47.9087 40.2434 47.8029 39.8475 47.4933 39.669L45.2292 38.3613C44.9196 38.1815 44.524 38.2877 44.3455 38.5979C44.1667 38.9072 44.2725 39.3031 44.5821 39.4816Z" fill="#FFD542"/>
<path d="M45.9293 47.7337C45.9293 47.3764 45.6395 47.0867 45.2822 47.0867H42.6674C42.3101 47.0867 42.0204 47.3764 42.0204 47.7337C42.0204 48.091 42.3101 48.3808 42.6674 48.3808H45.2822C45.6395 48.3808 45.9293 48.0911 45.9293 47.7337Z" fill="#FFD542"/>
<path d="M47.0768 54.6162L44.8121 55.9239C44.5025 56.1028 44.3966 56.4986 44.5751 56.8079C44.7555 57.1197 45.1526 57.2219 45.4591 57.0449L47.7238 55.7372C48.0335 55.5583 48.1393 55.1625 47.9608 54.8532C47.782 54.5435 47.3858 54.4367 47.0768 54.6162Z" fill="#FFD542"/>
<path d="M50.6893 32.7324L51.997 34.9972C52.1774 35.3089 52.5745 35.4111 52.881 35.2341C53.2725 35.008 53.2717 34.4959 53.0561 34.1223L51.7484 31.8576C51.5689 31.5479 51.1737 31.4411 50.8644 31.6206C50.473 31.8467 50.4737 32.3588 50.6893 32.7324Z" fill="#FFD542"/>
<path d="M60.0003 33.205C60.3576 33.205 60.6474 32.9153 60.6474 32.558V32.5558V29.9432V29.941C60.6474 29.5837 60.3576 29.2939 60.0003 29.2939C59.643 29.2939 59.3533 29.5837 59.3533 29.941V29.9432V32.5558V32.558C59.3533 32.9153 59.643 33.205 60.0003 33.205Z" fill="#FFD542"/>
<path d="M67.1194 35.2365C67.4259 35.4136 67.8232 35.3113 68.0034 34.9996L69.3111 32.7349C69.529 32.3576 69.5263 31.8437 69.1361 31.6183C68.8262 31.4391 68.4309 31.546 68.2521 31.8553L66.9444 34.12C66.7265 34.4973 66.7292 35.0112 67.1194 35.2365Z" fill="#FFD542"/>
<path d="M73.1537 40.7922L75.4184 39.4845C75.728 39.3056 75.8339 38.9098 75.6554 38.6005C75.476 38.2908 75.0807 38.1843 74.7714 38.3635L72.5067 39.6712C72.197 39.8501 72.0912 40.2459 72.2697 40.5552C72.45 40.867 72.8472 40.9692 73.1537 40.7922Z" fill="#FFD542"/>
<path d="M77.3325 47.0891H74.7177C74.3604 47.0891 74.0707 47.3789 74.0707 47.7362C74.0707 48.0935 74.3604 48.3832 74.7177 48.3832H77.3325C77.6898 48.3832 77.9796 48.0935 77.9796 47.7362C77.9796 47.3789 77.6899 47.0891 77.3325 47.0891Z" fill="#FFD542"/>
<path d="M75.1878 55.9259L72.9237 54.6189C72.6128 54.4394 72.2183 54.5462 72.0397 54.8558C71.8612 55.1654 71.9671 55.561 72.2767 55.7398L74.5407 57.0469C74.8514 57.2258 75.2468 57.1177 75.4248 56.8099C75.6033 56.5003 75.4974 56.1047 75.1878 55.9259Z" fill="#FFD542"/>
<path d="M55.2227 63.9124H65.2391V65.2828H55.2227V63.9124Z" fill="#FFD542"/>
<path d="M55.2229 66.6631C55.2229 67.5754 55.9605 68.3066 56.8664 68.3066H63.5958C64.5017 68.3066 65.2394 67.5754 65.2394 66.6631V66.5771H55.2229V66.6631Z" fill="#FFD542"/>
<path d="M60.2294 70.7059C61.6723 70.7059 62.87 69.6739 63.1327 68.3086H57.3267C57.5881 69.6739 58.787 70.7059 60.2294 70.7059Z" fill="#FFD542"/>
<path d="M72.1368 46.5266C71.5933 40.7355 66.818 36.1155 61.0139 35.7466C54.0451 35.3066 48.2668 40.8261 48.2668 47.6914C48.2668 51.2502 49.8198 54.4466 52.2916 56.6402C53.5404 57.7466 54.3039 59.2931 54.3039 60.9625V61.1178H55.2227V62.619H65.2392V61.1178H66.158V60.9625C66.158 59.2996 66.9086 57.7531 68.1574 56.6466C70.8946 54.2202 72.5187 50.5578 72.1368 46.5266ZM63.4146 50.3961H62.431V61.1178H61.1369V50.3961H59.3187V61.1178H58.0246V50.3961H57.041C55.8051 50.3961 54.8022 49.3931 54.8022 48.1572C54.8022 47.5619 55.0351 46.999 55.4493 46.5719C56.8016 45.2455 59.2799 46.0996 59.2799 48.1572V49.1019H61.1822V48.1572C61.1822 47.5619 61.4087 46.999 61.8293 46.5719C63.1946 45.2325 65.6599 46.1061 65.6599 48.1572C65.6599 49.3931 64.6504 50.3961 63.4146 50.3961Z" fill="#FFD542"/>
<path d="M64.3641 48.159C64.3641 47.2856 63.3164 46.9269 62.7446 47.4898C62.6255 47.6112 62.4741 47.8333 62.4741 48.159V49.1018H63.4169C63.9392 49.1018 64.3641 48.6787 64.3641 48.159Z" fill="#FFD542"/>
<path d="M56.3681 47.4894C56.2481 47.6116 56.0964 47.834 56.0964 48.1592C56.0964 48.6789 56.5217 49.1019 57.0442 49.1019H57.9864V48.1592C57.9864 47.3011 56.9627 46.9032 56.3681 47.4894Z" fill="#FFD542"/>
</g>
</g>
<defs>
<filter id="filter0_d_145_57" x="0" y="0" width="120" height="120" filterUnits="userSpaceOnUse" color-interpolation-filters="sRGB">
<feFlood flood-opacity="0" result="BackgroundImageFix"/>
<feColorMatrix in="SourceAlpha" type="matrix" values="0 0 0 0 0 0 0 0 0 0 0 0 0 0 0 0 0 0 127 0" result="hardAlpha"/>
<feOffset dy="10"/>
<feGaussianBlur stdDeviation="10"/>
<feComposite in2="hardAlpha" operator="out"/>
<feColorMatrix type="matrix" values="0 0 0 0 1 0 0 0 0 0.835294 0 0 0 0 0.258824 0 0 0 0.25 0"/>
<feBlend mode="normal" in2="BackgroundImageFix" result="effect1_dropShadow_145_57"/>
<feBlend mode="normal" in="SourceGraphic" in2="effect1_dropShadow_145_57" result="shape"/>
</filter>
<filter id="filter1_d_145_57" x="32.0204" y="29.2939" width="55.9592" height="61.4121" filterUnits="userSpaceOnUse" color-interpolation-filters="sRGB">
<feFlood flood-opacity="0" result="BackgroundImageFix"/>
<feColorMatrix in="SourceAlpha" type="matrix" values="0 0 0 0 0 0 0 0 0 0 0 0 0 0 0 0 0 0 127 0" result="hardAlpha"/>
<feOffset dy="10"/>
<feGaussianBlur stdDeviation="5"/>
<feComposite in2="hardAlpha" operator="out"/>
<feColorMatrix type="matrix" values="0 0 0 0 1 0 0 0 0 0.835294 0 0 0 0 0.258824 0 0 0 0.25 0"/>
<feBlend mode="normal" in2="BackgroundImageFix" result="effect1_dropShadow_145_57"/>
<feBlend mode="normal" in="SourceGraphic" in2="effect1_dropShadow_145_57" result="shape"/>
</filter>
</defs>
</svg>
