<svg width="20" height="16" viewBox="0 0 20 16" fill="none" xmlns="http://www.w3.org/2000/svg">
<path d="M18 1.00268e-07C18.5046 -0.000159579 18.9906 0.190406 19.3605 0.533497C19.7305 0.876588 19.9572 1.34684 19.995 1.85L20 2V14C20.0002 14.5046 19.8096 14.9906 19.4665 15.3605C19.1234 15.7305 18.6532 15.9572 18.15 15.995L18 16H2C1.49542 16.0002 1.00943 15.8096 0.639452 15.4665C0.269471 15.1234 0.0428434 14.6532 0.00500021 14.15L1.00268e-07 14V2C-0.000159579 1.49542 0.190406 1.00943 0.533497 0.639452C0.876588 0.269471 1.34684 0.0428434 1.85 0.00500021L2 1.00268e-07H18ZM18 3.414L11.06 10.354C10.7787 10.6349 10.3975 10.7927 10 10.7927C9.6025 10.7927 9.22125 10.6349 8.94 10.354L2 3.414V14H18V3.414ZM16.586 2H3.414L10 8.586L16.586 2Z" fill="#DEF0FF"/>
</svg>
