<svg width="40" height="32" viewBox="0 0 40 32" fill="none" xmlns="http://www.w3.org/2000/svg">
<path d="M36 2.00536e-07C37.0092 -0.000319158 37.9811 0.380813 38.7211 1.06699C39.4611 1.75318 39.9143 2.69369 39.99 3.7L40 4V28C40.0003 29.0092 39.6192 29.9811 38.933 30.7211C38.2468 31.4611 37.3063 31.9143 36.3 31.99L36 32H4C2.99085 32.0003 2.01887 31.6192 1.2789 30.933C0.538941 30.2468 0.0856868 29.3063 0.0100004 28.3L2.00536e-07 28V4C-0.000319158 2.99085 0.380813 2.01887 1.06699 1.2789C1.75318 0.538941 2.69369 0.0856868 3.7 0.0100004L4 2.00536e-07H36ZM36 6.828L22.12 20.708C21.5575 21.2698 20.795 21.5854 20 21.5854C19.205 21.5854 18.4425 21.2698 17.88 20.708L4 6.828V28H36V6.828ZM33.172 4H6.828L20 17.172L33.172 4Z" fill="#2F7AFF"/>
</svg>
