<svg width="24" height="24" viewBox="0 0 24 24" fill="none" xmlns="http://www.w3.org/2000/svg">
<g clip-path="url(#clip0_95_1343)">
<path d="M9 9.69312L12 8.56812L15 9.69312V12.0281C15 12.5852 14.8449 13.1312 14.552 13.6051C14.2592 14.0789 13.8402 14.4619 13.342 14.7111L12 15.3821L10.658 14.7121C10.1595 14.4628 9.7403 14.0795 9.44744 13.6052C9.15459 13.131 8.99965 12.5845 9 12.0271V9.69312Z" fill="#EAF2FF"/>
<path fill-rule="evenodd" clip-rule="evenodd" d="M12.702 2.19512C12.2494 2.02545 11.7506 2.02545 11.298 2.19512L4.298 4.82012C3.91669 4.96305 3.5881 5.21898 3.35615 5.55368C3.1242 5.88838 2.99995 6.2859 3 6.69312V12.0561C2.99996 13.7275 3.46537 15.366 4.34407 16.7878C5.22277 18.2096 6.48004 19.3586 7.975 20.1061L11.329 21.7821C11.5373 21.8863 11.7671 21.9406 12 21.9406C12.2329 21.9406 12.4627 21.8863 12.671 21.7821L16.025 20.1051C17.52 19.3576 18.7772 18.2086 19.6559 16.7868C20.5346 15.365 21 13.7265 21 12.0551V6.69412C21.0001 6.2869 20.8758 5.88938 20.6438 5.55468C20.4119 5.21998 20.0833 4.96405 19.702 4.82112L12.702 2.19612V2.19512ZM12.527 6.63012C12.1872 6.50262 11.8128 6.50262 11.473 6.63012L7.973 7.94212C7.68707 8.04942 7.44071 8.24143 7.26684 8.4925C7.09297 8.74357 6.99987 9.04173 7 9.34712V12.0271C6.99985 12.9558 7.25835 13.8662 7.74655 14.6563C8.23474 15.4463 8.93333 16.0848 9.764 16.5001L11.441 17.3381C11.6146 17.4249 11.806 17.4701 12 17.4701C12.194 17.4701 12.3854 17.4249 12.559 17.3381L14.236 16.5001C15.0665 16.0849 15.765 15.4466 16.2532 14.6567C16.7414 13.8669 17 12.9567 17 12.0281V9.34712C17.0001 9.04173 16.907 8.74357 16.7332 8.4925C16.5593 8.24143 16.3129 8.04942 16.027 7.94212L12.527 6.63012Z" fill="#EAF2FF"/>
</g>
<defs>
<clipPath id="clip0_95_1343">
<rect width="24" height="24" fill="white"/>
</clipPath>
</defs>
</svg>
