<svg width="120" height="120" viewBox="0 0 120 120" fill="none" xmlns="http://www.w3.org/2000/svg">
<g filter="url(#filter0_d_145_102)">
<rect x="20" y="10" width="80" height="80" rx="40" fill="#090A0C" shape-rendering="crispEdges"/>
<rect x="20.5" y="10.5" width="79" height="79" rx="39.5" stroke="#00B3FE" shape-rendering="crispEdges"/>
<g filter="url(#filter1_d_145_102)">
<path d="M78.469 39.3256C78.4163 38.168 78.4163 37.0631 78.4163 35.9581C78.4163 35.0637 77.7323 34.3797 76.8379 34.3797C70.2609 34.3797 65.2624 32.4855 61.1057 28.4341C60.4743 27.8553 59.5273 27.8553 58.8959 28.4341C54.7392 32.4855 49.7407 34.3797 43.1637 34.3797C42.2693 34.3797 41.5853 35.0637 41.5853 35.9581C41.5853 37.0631 41.5853 38.168 41.5326 39.3256C41.3222 50.3749 41.0065 65.5282 59.4746 71.8948L60.0008 72L60.527 71.8948C78.9425 65.5282 78.6794 50.4275 78.469 39.3256ZM58.738 54.6368C58.4223 54.8999 58.054 55.0577 57.6331 55.0577H57.5805C57.1595 55.0577 56.7386 54.8472 56.4755 54.5315L51.5823 49.1121L53.95 47.0075L57.7909 51.2694L66.3147 43.1665L68.4719 45.4816L58.738 54.6368Z" fill="#00B3FE"/>
</g>
</g>
<defs>
<filter id="filter0_d_145_102" x="0" y="0" width="120" height="120" filterUnits="userSpaceOnUse" color-interpolation-filters="sRGB">
<feFlood flood-opacity="0" result="BackgroundImageFix"/>
<feColorMatrix in="SourceAlpha" type="matrix" values="0 0 0 0 0 0 0 0 0 0 0 0 0 0 0 0 0 0 127 0" result="hardAlpha"/>
<feOffset dy="10"/>
<feGaussianBlur stdDeviation="10"/>
<feComposite in2="hardAlpha" operator="out"/>
<feColorMatrix type="matrix" values="0 0 0 0 0 0 0 0 0 0.701961 0 0 0 0 0.996078 0 0 0 0.25 0"/>
<feBlend mode="normal" in2="BackgroundImageFix" result="effect1_dropShadow_145_102"/>
<feBlend mode="normal" in="SourceGraphic" in2="effect1_dropShadow_145_102" result="shape"/>
</filter>
<filter id="filter1_d_145_102" x="31.4845" y="28" width="57.0309" height="64" filterUnits="userSpaceOnUse" color-interpolation-filters="sRGB">
<feFlood flood-opacity="0" result="BackgroundImageFix"/>
<feColorMatrix in="SourceAlpha" type="matrix" values="0 0 0 0 0 0 0 0 0 0 0 0 0 0 0 0 0 0 127 0" result="hardAlpha"/>
<feOffset dy="10"/>
<feGaussianBlur stdDeviation="5"/>
<feComposite in2="hardAlpha" operator="out"/>
<feColorMatrix type="matrix" values="0 0 0 0 0 0 0 0 0 0.701961 0 0 0 0 0.996078 0 0 0 0.25 0"/>
<feBlend mode="normal" in2="BackgroundImageFix" result="effect1_dropShadow_145_102"/>
<feBlend mode="normal" in="SourceGraphic" in2="effect1_dropShadow_145_102" result="shape"/>
</filter>
</defs>
</svg>
