<svg width="294" height="80" viewBox="0 0 294 80" fill="none" xmlns="http://www.w3.org/2000/svg">
<g clip-path="url(#clip0_248_555)">
<path d="M54.296 70.4693H25.5454C24.5962 70.4693 23.8267 69.6998 23.8267 68.7506V59.22C23.8267 58.2708 24.5962 57.5012 25.5454 57.5012H54.296C55.2453 57.5012 56.0148 58.2708 56.0148 59.22V68.7506C56.0148 69.6998 55.2453 70.4693 54.296 70.4693ZM27.2642 67.0318H52.5773V60.9387H27.2642V67.0318Z" fill="#2F7AFF"/>
<path d="M79.9969 40.0609C79.9828 39.8094 79.9094 39.5641 79.7922 39.3391L70.2875 20.3297C69.9969 19.7469 69.4016 19.3781 68.75 19.3781H60.7797V1.71875C60.7797 0.76875 60.0109 0 59.0609 0H20.7797C19.8313 0 19.0609 0.76875 19.0609 1.71875V19.3781H11.25C10.5984 19.3781 10.0031 19.7469 9.7125 20.3297L0.207813 39.3391C0.078125 39.5922 0 39.8703 0 40.1594V49.6891C0 50.6391 0.76875 51.4078 1.71875 51.4078H4.76562V78.2812C4.76562 79.2312 5.53438 80 6.48438 80H73.5156C74.4656 80 75.2344 79.2312 75.2344 78.2812V51.4078H78.2812C79.2312 51.4078 80 50.6391 80 49.6891C80 49.6891 80 40.1594 80 40.1562C80 40.125 79.9984 40.0922 79.9969 40.0609ZM22.4984 3.4375H57.3422V28.9094H22.4984V3.4375ZM12.3109 22.8156H19.0609V28.9094H16.0141C15.0656 28.9094 14.2953 29.6797 14.2953 30.6281C14.2953 31.5781 15.0656 32.3469 16.0141 32.3469H63.8266C64.775 32.3469 65.5453 31.5781 65.5453 30.6281C65.5453 29.6797 64.775 28.9094 63.8266 28.9094H60.7797V22.8156H67.6891L75.5 38.4406H4.5L12.3109 22.8156ZM71.7969 76.5625H8.20312V51.4078H71.7969V76.5625ZM76.5625 47.9703H3.4375V41.8781H76.5625V47.9703Z" fill="white"/>
<path d="M37.6174 22.8162C37.1776 22.8162 36.7377 22.6484 36.4021 22.3127L29.2541 15.1649C28.583 14.4937 28.5829 13.4054 29.2541 12.7341C29.9254 12.063 31.0136 12.063 31.6849 12.7341L37.6175 18.6666L47.4713 8.81289C48.1426 8.1418 49.2308 8.1418 49.9021 8.81289C50.5732 9.48414 50.5732 10.5724 49.9021 11.2437L38.8329 22.3129C38.4971 22.6484 38.0572 22.8162 37.6174 22.8162Z" fill="#2F7AFF"/>
</g>
<line y1="-0.5" x2="150" y2="-0.5" transform="matrix(-1 0 0 1 242 40)" stroke="url(#paint0_linear_248_555)"/>
<circle cx="274" cy="40" r="19.5" fill="#2F7AFF" stroke="#2F7AFF"/>
<path d="M265.688 40.176C265.688 36.544 267.64 34.08 270.632 34.08C273.624 34.08 275.592 36.544 275.592 40.176C275.592 43.792 273.736 46.208 270.632 46.208C267.528 46.208 265.688 43.792 265.688 40.176ZM267.704 40.176C267.704 42.88 268.792 44.4 270.632 44.4C272.488 44.4 273.576 42.88 273.576 40.176C273.576 37.408 272.488 35.888 270.632 35.888C268.792 35.888 267.704 37.408 267.704 40.176ZM280.378 40.208H278.954V38.88L281.962 36.112H277.098V34.304H284.522V35.936L281.674 38.56C283.466 38.912 284.858 40.224 284.858 42.288C284.858 44.688 282.986 46.208 280.618 46.208C278.33 46.208 276.554 44.8 276.554 42.272H278.57C278.57 43.616 279.402 44.384 280.65 44.384C281.93 44.384 282.778 43.552 282.778 42.256C282.778 41.072 282.01 40.208 280.378 40.208Z" fill="white"/>
<defs>
<linearGradient id="paint0_linear_248_555" x1="0" y1="0.5" x2="150" y2="0.5" gradientUnits="userSpaceOnUse">
<stop stop-color="#2F7AFF"/>
<stop offset="1" stop-color="#090A0C"/>
</linearGradient>
<clipPath id="clip0_248_555">
<rect width="80" height="80" fill="white"/>
</clipPath>
</defs>
</svg>
