<svg width="294" height="80" viewBox="0 0 294 80" fill="none" xmlns="http://www.w3.org/2000/svg">
<g clip-path="url(#clip0_248_545)">
<path d="M71.7811 5.23766H49.9486C48.8314 2.18469 45.897 0 42.462 0H7.96875C3.57484 0 0 3.57469 0 7.96875V22.4219C0 26.8159 3.57484 30.3906 7.96875 30.3906H19.9611L27.2688 37.8161C27.5983 38.1511 28.042 38.3294 28.4942 38.3294C28.7131 38.3294 28.9342 38.2873 29.1452 38.2011C29.7908 37.9367 30.2125 37.3083 30.2125 36.6105V30.3906H39.5511C41.03 32.8963 43.7383 34.4503 46.633 34.4503H53.2216V39.1884C53.2216 39.8481 53.5991 40.4495 54.1933 40.7364C54.4309 40.8509 54.6861 40.9072 54.94 40.9072C55.3213 40.9072 55.6995 40.7803 56.0097 40.5341L63.6653 34.4503H71.7812C76.3131 34.4503 80.0002 30.7633 80.0002 26.2314V13.4564C80 8.92469 76.313 5.23766 71.7811 5.23766ZM28.4936 26.9531C27.5444 26.9531 26.7748 27.7227 26.7748 28.6719V32.4137L21.9061 27.4664C21.5831 27.138 21.1417 26.9531 20.6811 26.9531H7.96875C5.47031 26.9531 3.4375 24.9205 3.4375 22.4219V7.96875C3.4375 5.47016 5.47031 3.4375 7.96875 3.4375H42.462C44.9605 3.4375 46.9933 5.47016 46.9933 7.96875V22.4219C46.9933 24.9205 44.9605 26.9531 42.462 26.9531H28.4936ZM76.5625 26.2316C76.5625 28.868 74.4175 31.013 71.7811 31.013H63.0653C62.677 31.013 62.3002 31.1445 61.9959 31.3861L56.6589 35.6273V32.7317C56.6589 31.7825 55.8894 31.013 54.9402 31.013H46.6328C45.6992 31.013 44.7983 30.7336 44.0338 30.235C47.6775 29.5031 50.4306 26.278 50.4306 22.422V8.67516H71.7811C74.4175 8.67516 76.5625 10.8202 76.5625 13.4566V26.2316Z" fill="white"/>
<path d="M70.6156 58.6195C72.693 56.8923 74.0178 54.2895 74.0178 51.383C74.0178 46.1952 69.7972 41.9746 64.6094 41.9746C59.4217 41.9746 55.2011 46.1952 55.2011 51.383C55.2011 54.2896 56.5259 56.8926 58.6034 58.6198C55.335 60.0595 52.6031 62.6515 50.9362 66.001C49.5363 64.5335 47.8642 63.3455 46.0062 62.5259C48.0836 60.7987 49.4084 58.1959 49.4084 55.2895C49.4084 50.1016 45.1878 45.8812 40.0002 45.8812C34.8123 45.8812 30.5917 50.1018 30.5917 55.2895C30.5917 58.1959 31.9164 60.7987 33.9938 62.5259C32.1358 63.3455 30.4637 64.5335 29.0637 66.001C27.397 62.6512 24.6656 60.0591 21.3969 58.6196C23.4742 56.8924 24.7989 54.2896 24.7989 51.3834C24.7989 46.1955 20.5783 41.9749 15.3906 41.9749C10.2028 41.9749 5.98219 46.1955 5.98219 51.3834C5.98219 54.2898 7.30703 56.8926 9.38438 58.6198C3.87375 61.0507 0 66.7218 0 73.3134V74.3751C0 75.3243 0.769531 76.0938 1.71875 76.0938H24.6472C24.622 76.4657 24.6094 76.8412 24.6094 77.2196V78.2813C24.6094 79.2305 25.3789 80.0001 26.3281 80.0001H53.6719C54.6211 80.0001 55.3906 79.2305 55.3906 78.2813V77.2196C55.3906 76.8412 55.3778 76.4657 55.3528 76.0938H78.2812C79.2305 76.0938 80 75.3243 80 74.3751V73.3134C80 66.7218 76.1264 61.0507 70.6156 58.6195ZM58.6386 51.383C58.6386 48.0907 61.3172 45.4121 64.6094 45.4121C67.9017 45.4121 70.5803 48.0907 70.5803 51.383C70.5803 54.6754 67.9017 57.3538 64.6094 57.3538C61.3172 57.3538 58.6386 54.6754 58.6386 51.383ZM40.0002 49.3185C43.2923 49.3185 45.9709 51.9971 45.9709 55.2893C45.9709 58.5815 43.2923 61.2601 40.0002 61.2601C36.7078 61.2601 34.0292 58.5815 34.0292 55.2893C34.0292 51.9971 36.7078 49.3185 40.0002 49.3185ZM9.41984 51.383C9.41984 48.0907 12.0984 45.4121 15.3908 45.4121C18.683 45.4121 21.3616 48.0907 21.3616 51.383C21.3616 54.6754 18.683 57.3538 15.3908 57.3538C12.0984 57.3538 9.41984 54.6754 9.41984 51.383ZM3.45375 72.6563C3.78109 66.056 9.01016 60.7915 15.3906 60.7915C20.4805 60.7915 25.0047 64.1752 26.6836 69.2241C26.083 70.2957 25.5989 71.4462 25.2502 72.6563H3.45375ZM28.0631 76.5626C28.3906 69.9623 33.6195 64.6976 40 64.6976C46.3805 64.6976 51.6095 69.9621 51.9369 76.5626H28.0631ZM54.7497 72.6563C54.4009 71.4462 53.917 70.296 53.3164 69.2245C54.9953 64.176 59.5209 60.7915 64.6094 60.7915C70.99 60.7915 76.2189 66.056 76.5462 72.6563H54.7497Z" fill="white"/>
<path d="M70.4688 24.2971H64.3518C63.4026 24.2971 62.6331 23.5276 62.6331 22.5784C62.6331 21.6292 63.4026 20.8596 64.3518 20.8596H70.4688C71.4181 20.8596 72.1876 21.6292 72.1876 22.5784C72.1876 23.5276 71.4181 24.2971 70.4688 24.2971Z" fill="#2F7AFF"/>
<path d="M59.6489 17.2659C58.7126 17.2659 57.9462 16.5145 57.9309 15.575C57.9156 14.6259 58.6726 13.8441 59.6217 13.8287L71.2221 13.6412C72.1653 13.6214 72.9529 14.383 72.9685 15.332C72.9839 16.2811 72.2268 17.063 71.2778 17.0783L59.6773 17.2658C59.6678 17.2658 59.6582 17.2659 59.6489 17.2659Z" fill="#2F7AFF"/>
<path d="M22.7441 20.4297H8.75C7.80078 20.4297 7.03125 19.6602 7.03125 18.7109C7.03125 17.7617 7.80078 16.9922 8.75 16.9922H22.7441C23.6933 16.9922 24.4628 17.7617 24.4628 18.7109C24.4628 19.6602 23.6933 20.4297 22.7441 20.4297ZM41.6808 13.3984H8.75C7.80078 13.3984 7.03125 12.6289 7.03125 11.6797C7.03125 10.7305 7.80078 9.96094 8.75 9.96094H41.6808C42.63 9.96094 43.3995 10.7305 43.3995 11.6797C43.3995 12.6289 42.63 13.3984 41.6808 13.3984Z" fill="#2F7AFF"/>
</g>
<line y1="-0.5" x2="150" y2="-0.5" transform="matrix(-1 0 0 1 242 40)" stroke="url(#paint0_linear_248_545)"/>
<circle cx="274" cy="40" r="19.5" fill="#2F7AFF" stroke="#2F7AFF"/>
<path d="M265.688 40.176C265.688 36.544 267.64 34.08 270.632 34.08C273.624 34.08 275.592 36.544 275.592 40.176C275.592 43.792 273.736 46.208 270.632 46.208C267.528 46.208 265.688 43.792 265.688 40.176ZM267.704 40.176C267.704 42.88 268.792 44.4 270.632 44.4C272.488 44.4 273.576 42.88 273.576 40.176C273.576 37.408 272.488 35.888 270.632 35.888C268.792 35.888 267.704 37.408 267.704 40.176ZM285.129 45.984L277.017 46V44.464L280.841 41.232C282.425 39.888 282.953 39.12 282.953 38C282.953 36.672 282.233 35.92 281.001 35.92C279.721 35.92 278.921 36.816 278.905 38.32H276.873C276.889 35.76 278.521 34.096 281.001 34.096C283.497 34.096 285.049 35.52 285.049 37.888C285.049 39.52 284.153 40.752 282.377 42.272L280.265 44.08H285.129V45.984Z" fill="white"/>
<defs>
<linearGradient id="paint0_linear_248_545" x1="0" y1="0.5" x2="150" y2="0.5" gradientUnits="userSpaceOnUse">
<stop stop-color="#2F7AFF"/>
<stop offset="1" stop-color="#090A0C"/>
</linearGradient>
<clipPath id="clip0_248_545">
<rect width="80" height="80" fill="white"/>
</clipPath>
</defs>
</svg>
