<svg width="294" height="80" viewBox="0 0 294 80" fill="none" xmlns="http://www.w3.org/2000/svg">
<path d="M10.7117 26.2312C11.0474 26.5669 11.4872 26.7347 11.927 26.7347C12.3669 26.7347 12.8067 26.5669 13.1424 26.2312L17.0058 22.3678C17.6769 21.6966 17.6769 20.6083 17.0058 19.937C16.3345 19.2658 15.2463 19.2658 14.575 19.937L11.9269 22.5852L11.3103 21.9684C10.6391 21.2972 9.55079 21.2972 8.87954 21.9684C8.20845 22.6397 8.20845 23.728 8.87954 24.3992L10.7117 26.2312Z" fill="#2F7AFF"/>
<path d="M12.9427 36.0268C20.0794 36.0268 25.8855 30.2207 25.8855 23.0842C25.8855 15.9475 20.0794 10.1414 12.9427 10.1414C5.80609 10.1414 0 15.9475 0 23.0842C0 30.2207 5.80609 36.0268 12.9427 36.0268ZM12.9427 13.5789C18.1839 13.5789 22.448 17.8429 22.448 23.0842C22.448 28.3253 18.1839 32.5893 12.9427 32.5893C7.70156 32.5893 3.4375 28.3253 3.4375 23.0842C3.4375 17.8429 7.70156 13.5789 12.9427 13.5789Z" fill="#2F7AFF"/>
<path d="M14.5753 53.7691L11.9271 56.4172L11.3106 55.8005C10.6393 55.1292 9.55104 55.1292 8.87979 55.8005C8.20869 56.4717 8.20869 57.56 8.87979 58.2312L10.7118 60.0633C11.0474 60.3989 11.4873 60.5667 11.9271 60.5667C12.367 60.5667 12.8068 60.3989 13.1424 60.0633L17.0059 56.1998C17.677 55.5286 17.677 54.4403 17.0059 53.7691C16.3348 53.0978 15.2465 53.0978 14.5753 53.7691Z" fill="#2F7AFF"/>
<path d="M12.9427 43.9731C5.80609 43.9731 0 49.7792 0 56.916C0 64.0527 5.80609 69.8588 12.9427 69.8588C20.0794 69.8588 25.8855 64.0527 25.8855 56.916C25.8855 49.7792 20.0794 43.9731 12.9427 43.9731ZM12.9427 66.4213C7.70156 66.4213 3.4375 62.1572 3.4375 56.916C3.4375 51.6747 7.70156 47.4106 12.9427 47.4106C18.1839 47.4106 22.448 51.6747 22.448 56.916C22.448 62.1572 18.1839 66.4213 12.9427 66.4213Z" fill="#2F7AFF"/>
<path d="M44.0798 36.0268H67.0573C74.194 36.0268 80.0001 30.2207 80.0001 23.084C80.0001 15.9473 74.194 10.1414 67.0573 10.1414H44.0798C36.9431 10.1414 31.137 15.9475 31.137 23.0842C31.137 30.2209 36.9432 36.0268 44.0798 36.0268ZM44.0798 13.5789H67.0573C72.2985 13.5789 76.5626 17.8429 76.5626 23.0842C76.5626 28.3253 72.2985 32.5893 67.0573 32.5893H44.0798C38.8385 32.5893 34.5745 28.3253 34.5745 23.084C34.5745 17.8429 38.8385 13.5789 44.0798 13.5789Z" fill="white"/>
<path d="M44.2617 21.2651H66.8753C67.8245 21.2651 68.5941 20.4956 68.5941 19.5464C68.5941 18.5972 67.8245 17.8276 66.8753 17.8276H44.2617C43.3125 17.8276 42.543 18.5972 42.543 19.5464C42.543 20.4956 43.3125 21.2651 44.2617 21.2651Z" fill="white"/>
<path d="M44.2617 28.3406H59.9448C60.8941 28.3406 61.6636 27.571 61.6636 26.6218C61.6636 25.6726 60.8941 24.9031 59.9448 24.9031H44.2617C43.3125 24.9031 42.543 25.6726 42.543 26.6218C42.543 27.571 43.3125 28.3406 44.2617 28.3406Z" fill="white"/>
<path d="M67.0573 43.9731H44.0798C36.9431 43.9731 31.137 49.7792 31.137 56.916C31.137 64.0527 36.9431 69.8586 44.0798 69.8586H67.0573C74.194 69.8586 80.0001 64.0525 80.0001 56.9158C80.0001 49.7791 74.194 43.9731 67.0573 43.9731ZM67.0573 66.4213H44.0798C38.8385 66.4213 34.5745 62.1572 34.5745 56.916C34.5745 51.6747 38.8385 47.4106 44.0798 47.4106H67.0573C72.2985 47.4106 76.5626 51.6747 76.5626 56.916C76.5626 62.1572 72.2985 66.4213 67.0573 66.4213Z" fill="white"/>
<path d="M66.8753 51.6597H44.2617C43.3125 51.6597 42.543 52.4292 42.543 53.3784C42.543 54.3276 43.3125 55.0972 44.2617 55.0972H66.8753C67.8245 55.0972 68.5941 54.3276 68.5941 53.3784C68.5941 52.4292 67.8247 51.6597 66.8753 51.6597Z" fill="white"/>
<path d="M59.9448 58.7351H44.2617C43.3125 58.7351 42.543 59.5046 42.543 60.4539C42.543 61.4031 43.3125 62.1726 44.2617 62.1726H59.9448C60.8941 62.1726 61.6636 61.4031 61.6636 60.4539C61.6636 59.5046 60.8942 58.7351 59.9448 58.7351Z" fill="white"/>
<line y1="-0.5" x2="150" y2="-0.5" transform="matrix(-1 0 0 1 242 40)" stroke="url(#paint0_linear_248_565)"/>
<circle cx="274" cy="40" r="19.5" fill="#2F7AFF" stroke="#2F7AFF"/>
<path d="M265.688 40.176C265.688 36.544 267.64 34.08 270.632 34.08C273.624 34.08 275.592 36.544 275.592 40.176C275.592 43.792 273.736 46.208 270.632 46.208C267.528 46.208 265.688 43.792 265.688 40.176ZM267.704 40.176C267.704 42.88 268.792 44.4 270.632 44.4C272.488 44.4 273.576 42.88 273.576 40.176C273.576 37.408 272.488 35.888 270.632 35.888C268.792 35.888 267.704 37.408 267.704 40.176ZM286.025 43.776H284.601V46H282.665V43.776H276.729V41.984L282.025 34.304H284.601V41.984H286.025V43.776ZM278.905 41.984H282.665V36.512L278.905 41.984Z" fill="white"/>
<defs>
<linearGradient id="paint0_linear_248_565" x1="0" y1="0.5" x2="150" y2="0.5" gradientUnits="userSpaceOnUse">
<stop stop-color="#2F7AFF"/>
<stop offset="1" stop-color="#090A0C"/>
</linearGradient>
</defs>
</svg>
