<svg width="350" height="280" viewBox="0 0 350 280" fill="none" xmlns="http://www.w3.org/2000/svg">
<path d="M115.5 220C115.5 204.22 121.769 189.086 132.927 177.927C144.086 166.769 159.22 160.5 175 160.5C190.78 160.5 205.914 166.769 217.073 177.927C228.231 189.086 234.5 204.22 234.5 220" stroke="#2F7AFF" stroke-opacity="0.2"/>
<path d="M125.5 220C125.5 206.872 130.715 194.281 139.998 184.998C149.281 175.715 161.872 170.5 175 170.5C188.128 170.5 200.719 175.715 210.002 184.998C219.285 194.281 224.5 206.872 224.5 220" stroke="#2F7AFF" stroke-opacity="0.5"/>
<line y1="219.5" x2="350" y2="219.5" stroke="url(#paint0_linear_322_166)"/>
<circle cx="175.5" cy="220.5" r="36" fill="#090A0C" stroke="#2F7AFF"/>
<path d="M160.032 221.264C160.032 215.816 162.96 212.12 167.448 212.12C171.936 212.12 174.888 215.816 174.888 221.264C174.888 226.688 172.104 230.312 167.448 230.312C162.792 230.312 160.032 226.688 160.032 221.264ZM163.056 221.264C163.056 225.32 164.688 227.6 167.448 227.6C170.232 227.6 171.864 225.32 171.864 221.264C171.864 217.112 170.232 214.832 167.448 214.832C164.688 214.832 163.056 217.112 163.056 221.264ZM189.194 229.976L177.026 230V227.696L182.762 222.848C185.138 220.832 185.93 219.68 185.93 218C185.93 216.008 184.85 214.88 183.002 214.88C181.082 214.88 179.882 216.224 179.858 218.48H176.81C176.834 214.64 179.282 212.144 183.002 212.144C186.746 212.144 189.074 214.28 189.074 217.832C189.074 220.28 187.73 222.128 185.066 224.408L181.898 227.12H189.194V229.976Z" fill="white"/>
<g clip-path="url(#clip0_322_166)">
<path d="M221.04 15.1743H185.929C181.859 15.1743 177.956 16.791 175.078 19.6689L104.896 89.8513C102.899 91.8487 102.899 95.0877 104.896 97.0851L151.917 144.106C153.915 146.104 157.154 146.104 159.151 144.106L229.333 73.924C232.211 71.0463 233.827 67.1431 233.827 63.0731V27.9624C233.828 20.9001 228.102 15.1743 221.04 15.1743ZM218.792 41.061C215.796 44.0574 210.937 44.0574 207.941 41.061C204.945 38.0646 204.945 33.2066 207.941 30.2102C210.938 27.2138 215.796 27.2138 218.792 30.2102C221.788 33.2066 221.789 38.0643 218.792 41.061Z" fill="#EAF2FF"/>
<path d="M112.573 97.528L182.755 27.3459C185.633 24.4683 189.536 22.8513 193.605 22.8513H228.716C230.237 22.8513 231.675 23.1626 233.029 23.6499C231.253 18.7203 226.581 15.1746 221.039 15.1746H185.929C181.859 15.1746 177.956 16.7913 175.078 19.6693L104.896 89.8513C102.899 91.8487 102.899 95.0877 104.896 97.0851L112.573 104.762C110.575 102.764 110.575 99.5254 112.573 97.528Z" fill="#BFD6FF"/>
<path d="M249 10.0825C249.011 7.38008 247.968 4.84298 246.063 2.93806C244.159 1.03343 241.616 -0.00835541 238.919 0.00147272C236.224 0.0127462 233.687 1.07158 231.776 2.98286C230.967 3.79224 229.494 5.54049 228.689 6.51087C227.843 7.52982 227.983 9.04161 229.002 9.88712C230.021 10.7329 231.533 10.593 232.378 9.57407C233.64 8.05475 234.682 6.85832 235.167 6.37386C236.178 5.363 237.517 4.8028 238.939 4.79673C238.947 4.79673 238.954 4.79673 238.962 4.79673C240.367 4.79673 241.684 5.34017 242.672 6.32847C243.666 7.32198 244.21 8.64791 244.204 10.062C244.198 11.4833 243.638 12.8228 242.627 13.8343C241.722 14.7393 238.611 17.2071 234.154 20.3205C231.517 15.8129 226.628 12.7763 221.039 12.7763H185.929C181.189 12.7763 176.734 14.622 173.382 17.9731L103.201 88.1557C101.782 89.5747 101 91.4614 101 93.4681C101 95.4748 101.782 97.3618 103.201 98.7805L150.222 145.801C151.687 147.266 153.61 147.998 155.534 147.998C157.458 147.998 159.382 147.266 160.846 145.801L231.028 75.6196C234.38 72.2683 236.225 67.8126 236.225 63.0729V27.9625C236.225 26.9262 236.12 25.9145 235.921 24.936C240.995 21.445 244.719 18.5246 246.018 17.2256C247.93 15.3143 248.989 12.7775 249 10.0825ZM231.43 27.9625V63.0729C231.43 66.5315 230.083 69.7832 227.638 72.2284L157.456 142.411C156.397 143.47 154.672 143.47 153.613 142.411L106.592 95.3898C106.079 94.8767 105.796 94.1942 105.796 93.4681C105.796 92.742 106.078 92.0598 106.592 91.5467L176.773 21.3649C179.219 18.9195 182.471 17.5727 185.929 17.5727H221.039C224.982 17.5727 228.419 19.7803 230.179 23.0241C227.347 24.8996 224.175 26.8938 220.811 28.8548C220.706 28.7398 220.599 28.6259 220.487 28.5146C216.561 24.588 210.172 24.588 206.245 28.5146C202.319 32.4412 202.319 38.8301 206.245 42.7567C208.209 44.72 210.788 45.7014 213.366 45.7014C215.945 45.7014 218.524 44.72 220.487 42.7567C223.108 40.1358 223.977 36.4187 223.099 33.0682C226.026 31.3648 228.836 29.6237 231.429 27.9394C231.429 27.9472 231.43 27.955 231.43 27.9625ZM211.225 36.713C211.646 37.5504 212.491 38.0337 213.369 38.0337C213.731 38.0337 214.099 37.9513 214.445 37.7773C215.85 37.0703 217.251 36.3349 218.637 35.5816C218.651 36.9503 218.14 38.3234 217.097 39.3654C215.04 41.4221 211.694 41.4221 209.637 39.3654C207.581 37.3085 207.581 33.9623 209.637 31.9053C210.666 30.8768 212.016 30.3629 213.367 30.3629C214.437 30.3629 215.503 30.6907 216.413 31.335C215.056 32.0727 213.678 32.795 212.29 33.4937C211.106 34.0886 210.63 35.5301 211.225 36.713Z" fill="#2F7AFF"/>
<path d="M172.445 48.8406C171.121 48.8406 170.048 49.9139 170.048 51.2383V101.876C170.048 103.2 171.121 104.274 172.445 104.274C173.77 104.274 174.843 103.2 174.843 101.876V51.2383C174.843 49.9136 173.77 48.8406 172.445 48.8406Z" fill="#2F7AFF"/>
<path d="M147.239 69.4363C143.313 73.3629 143.313 79.7517 147.239 83.6784C149.203 85.642 151.781 86.6233 154.36 86.623C156.939 86.623 159.518 85.6411 161.481 83.6784C163.384 81.776 164.431 79.2473 164.431 76.5573C164.431 73.8673 163.384 71.3386 161.481 69.4365C157.555 65.5093 151.165 65.5096 147.239 69.4363ZM158.09 80.2871C156.033 82.344 152.687 82.3438 150.63 80.2871C148.574 78.2301 148.574 74.8839 150.63 72.827C151.659 71.7985 153.01 71.2845 154.36 71.2845C155.711 71.2845 157.062 71.7985 158.091 72.827C159.087 73.8234 159.636 75.1478 159.636 76.557C159.635 77.9662 159.087 79.2907 158.09 80.2871Z" fill="#2F7AFF"/>
<path d="M183.409 69.4363C179.483 73.3629 179.483 79.7518 183.409 83.6784C185.373 85.6417 187.951 86.6231 190.53 86.6231C193.109 86.6231 195.688 85.6417 197.651 83.6784C201.578 79.7518 201.578 73.3629 197.651 69.4363C193.725 65.5094 187.335 65.5097 183.409 69.4363ZM194.26 80.2871C192.203 82.3441 188.857 82.3438 186.8 80.2871C184.743 78.2301 184.743 74.884 186.8 72.827C187.829 71.7985 189.179 71.2846 190.53 71.2846C191.881 71.2846 193.232 71.7985 194.26 72.827C196.317 74.884 196.317 78.2301 194.26 80.2871Z" fill="#2F7AFF"/>
</g>
<defs>
<linearGradient id="paint0_linear_322_166" x1="0" y1="220.5" x2="350" y2="220.5" gradientUnits="userSpaceOnUse">
<stop stop-color="#090A0C"/>
<stop offset="0.49667" stop-color="#2F7AFF"/>
<stop offset="1" stop-color="#090A0C"/>
</linearGradient>
<clipPath id="clip0_322_166">
<rect width="148" height="148" fill="white" transform="translate(101)"/>
</clipPath>
</defs>
</svg>
