<svg width="294" height="80" viewBox="0 0 294 80" fill="none" xmlns="http://www.w3.org/2000/svg">
<g clip-path="url(#clip0_248_575)">
<path d="M65.8229 79.9999H57.8807C57.0921 79.9999 56.4046 79.4632 56.2134 78.6981L55.3816 75.3713C54.6095 75.0077 53.8684 74.5791 53.166 74.0895L49.866 75.0334C49.1079 75.2504 48.2991 74.9234 47.9048 74.2402L43.9337 67.3621C43.5393 66.6791 43.6605 65.8152 44.2274 65.2671L46.6945 62.8818C46.6518 62.432 46.6313 62.0134 46.6313 61.6026C46.6313 61.1918 46.6518 60.773 46.6945 60.3232L44.2274 57.9377C43.6605 57.3896 43.5395 56.5257 43.9337 55.8427L47.9048 48.9646C48.299 48.2816 49.1068 47.9545 49.866 48.1715L53.1662 49.1155C53.8687 48.6259 54.6095 48.1973 55.3816 47.8337L56.2134 44.507C56.4046 43.7418 57.0921 43.2051 57.8807 43.2051H65.8229C66.6115 43.2051 67.299 43.742 67.4902 44.507L68.322 47.8337C69.094 48.1971 69.8351 48.6259 70.5376 49.1155L73.8376 48.1715C74.5957 47.9545 75.4045 48.2815 75.7988 48.9646L79.7699 55.8427C80.1641 56.5257 80.0432 57.3895 79.4762 57.9377L77.0091 60.3232C77.0518 60.773 77.0723 61.1916 77.0723 61.6026C77.0723 62.0135 77.052 62.432 77.0091 62.8818L79.4762 65.2671C80.0432 65.8152 80.1643 66.6791 79.7699 67.3621L75.7988 74.2402C75.4046 74.9234 74.5962 75.2502 73.8376 75.0334L70.5376 74.0895C69.8351 74.5791 69.0941 75.0077 68.322 75.3713L67.4902 78.6981C67.299 79.4632 66.6115 79.9999 65.8229 79.9999ZM59.2226 76.5624H64.4807L65.1921 73.7171C65.3259 73.1818 65.7087 72.7432 66.221 72.5382C67.264 72.1209 68.2434 71.5543 69.1318 70.8541C69.5657 70.5123 70.1377 70.3996 70.6684 70.5516L73.4927 71.3595L76.122 66.8057L74.0063 64.7602C73.6101 64.3771 73.4216 63.8271 73.4996 63.2815C73.5916 62.6371 73.6346 62.1035 73.6346 61.6027C73.6346 61.1018 73.5918 60.5684 73.4996 59.924C73.4215 59.3782 73.6101 58.8284 74.0063 58.4452L76.122 56.3996L73.4927 51.8459L70.6684 52.6537C70.1371 52.8054 69.5655 52.6929 69.1318 52.351C68.2434 51.6509 67.2641 51.0843 66.2213 50.6671C65.709 50.4621 65.326 50.0235 65.1923 49.4882L64.4809 46.6429H59.2227L58.5113 49.4882C58.3774 50.0237 57.9946 50.4621 57.4823 50.6671C56.4395 51.0841 55.4602 51.6507 54.572 52.351C54.1381 52.6929 53.5662 52.8057 53.0352 52.6537L50.2109 51.8459L47.5816 56.3996L49.6973 58.4452C50.0935 58.8284 50.282 59.3784 50.204 59.924C50.112 60.5684 50.069 61.1018 50.069 61.6027C50.069 62.1035 50.112 62.637 50.204 63.2815C50.2821 63.8271 50.0935 64.3771 49.6973 64.7602L47.5816 66.8057L50.2109 71.3595L53.0352 70.5516C53.566 70.3996 54.1379 70.5123 54.5718 70.8541C55.4602 71.5543 56.4395 72.1209 57.4824 72.5382C57.9948 72.7432 58.3776 73.1818 58.5113 73.7171L59.2226 76.5624Z" fill="#2F7AFF"/>
<path d="M69.4208 27.5069C68.7494 26.8356 67.6613 26.8356 66.99 27.5069L63.5703 30.9266V11.2494C63.5705 5.04656 58.5241 0 52.3211 0H30.3107C24.1077 0 19.0613 5.04641 19.0613 11.2494V20.9387C19.0613 21.888 19.8308 22.6575 20.78 22.6575C21.7292 22.6575 22.4988 21.888 22.4988 20.9387V11.2494C22.4988 6.94188 26.0032 3.4375 30.3107 3.4375H52.3211C56.6286 3.4375 60.133 6.94188 60.133 11.2494V30.9264L56.7135 27.5069C56.0422 26.8356 54.9539 26.8356 54.2827 27.5069C53.6116 28.1781 53.6116 29.2664 54.2827 29.9377L60.6364 36.2914C61.2771 36.9556 62.4264 36.9556 63.0672 36.2914L69.421 29.9377C70.0919 29.2663 70.0921 28.1781 69.4208 27.5069Z" fill="#2F7AFF"/>
<path d="M61.8517 68.0868C58.2764 68.0868 55.3677 65.178 55.3677 61.6027C55.3677 58.0274 58.2764 55.1187 61.8517 55.1187C65.4271 55.1187 68.3358 58.0274 68.3358 61.6027C68.3358 65.178 65.4271 68.0868 61.8517 68.0868ZM61.8517 58.5562C60.1719 58.5562 58.8052 59.9229 58.8052 61.6027C58.8052 63.2826 60.1719 64.6493 61.8517 64.6493C63.5316 64.6493 64.8983 63.2826 64.8983 61.6027C64.8983 59.9227 63.5316 58.5562 61.8517 58.5562Z" fill="white"/>
<path d="M27.5548 39.7378C26.8835 39.0666 25.7953 39.0666 25.124 39.7378L20.7798 44.082L16.4356 39.7378C15.7643 39.0666 14.676 39.0666 14.0048 39.7378C13.3337 40.4091 13.3337 41.4973 14.0048 42.1686L19.0609 47.2247V65.5739C19.0609 66.5231 19.8304 67.2927 20.7796 67.2927C21.7288 67.2927 22.4984 66.5231 22.4984 65.5739V47.2247L27.5545 42.1686C28.2259 41.4972 28.2259 40.4089 27.5548 39.7378Z" fill="#2F7AFF"/>
<path d="M20.78 19.3789C9.32188 19.3789 0 28.7008 0 40.1589C0 45.485 2.01953 50.5486 5.68672 54.417C8.67766 57.572 10.3248 61.4922 10.3248 65.4552C10.3248 65.4752 10.3272 65.4945 10.3278 65.5145C10.3272 65.5344 10.3248 65.5538 10.3248 65.5739V73.5161C10.3248 77.0914 13.2336 80.0002 16.8089 80.0002H24.7511C28.3264 80.0002 31.2352 77.0914 31.2352 73.5161V65.5739C31.2352 65.5539 31.2328 65.5344 31.2322 65.5145C31.2328 65.4947 31.2352 65.4753 31.2352 65.4552C31.2352 61.4922 32.8823 57.572 35.8733 54.417C39.5405 50.5486 41.56 45.485 41.56 40.1589C41.5598 28.7008 32.2381 19.3789 20.78 19.3789ZM27.7977 73.5159C27.7977 75.1958 26.4309 76.5625 24.7511 76.5625H16.8089C15.1291 76.5625 13.7623 75.1958 13.7623 73.5159V67.2925H27.7977V73.5159ZM33.3786 52.0522C30.1769 55.4297 28.2562 59.5698 27.8709 63.8552H13.6889C13.3038 59.5698 11.3831 55.4297 8.18141 52.0522C5.12219 48.825 3.4375 44.6012 3.4375 40.1589C3.4375 30.5963 11.2172 22.8164 20.78 22.8164C30.3428 22.8164 38.1225 30.5963 38.1225 40.1589C38.1223 44.6012 36.4377 48.825 33.3786 52.0522Z" fill="white"/>
</g>
<line y1="-0.5" x2="150" y2="-0.5" transform="matrix(-1 0 0 1 242 40)" stroke="url(#paint0_linear_248_575)"/>
<circle cx="274" cy="40" r="19.5" fill="#2F7AFF" stroke="#2F7AFF"/>
<path d="M265.688 40.176C265.688 36.544 267.64 34.08 270.632 34.08C273.624 34.08 275.592 36.544 275.592 40.176C275.592 43.792 273.736 46.208 270.632 46.208C267.528 46.208 265.688 43.792 265.688 40.176ZM267.704 40.176C267.704 42.88 268.792 44.4 270.632 44.4C272.488 44.4 273.576 42.88 273.576 40.176C273.576 37.408 272.488 35.888 270.632 35.888C268.792 35.888 267.704 37.408 267.704 40.176ZM281.001 46.192C278.553 46.192 276.937 44.624 276.937 42.256H278.969C278.969 43.584 279.753 44.368 281.049 44.368C282.425 44.368 283.305 43.472 283.305 42.048C283.305 40.688 282.489 39.76 281.081 39.76C280.185 39.76 279.369 40.208 278.953 40.816L277.145 40.432L278.585 34.304H284.681V36.192H280.057L279.433 38.624C279.993 38.256 280.697 38.048 281.497 38.048C283.833 38.048 285.385 39.632 285.385 41.936C285.385 44.464 283.609 46.192 281.001 46.192Z" fill="white"/>
<defs>
<linearGradient id="paint0_linear_248_575" x1="0" y1="0.5" x2="150" y2="0.5" gradientUnits="userSpaceOnUse">
<stop stop-color="#2F7AFF"/>
<stop offset="1" stop-color="#090A0C"/>
</linearGradient>
<clipPath id="clip0_248_575">
<rect width="80" height="80" fill="white"/>
</clipPath>
</defs>
</svg>
