<svg width="350" height="280" viewBox="0 0 350 280" fill="none" xmlns="http://www.w3.org/2000/svg">
<path d="M115.5 220C115.5 204.22 121.769 189.086 132.927 177.927C144.086 166.769 159.22 160.5 175 160.5C190.78 160.5 205.914 166.769 217.073 177.927C228.231 189.086 234.5 204.22 234.5 220" stroke="#2F7AFF" stroke-opacity="0.2"/>
<path d="M125.5 220C125.5 206.872 130.715 194.281 139.998 184.998C149.281 175.715 161.872 170.5 175 170.5C188.128 170.5 200.719 175.715 210.002 184.998C219.285 194.281 224.5 206.872 224.5 220" stroke="#2F7AFF" stroke-opacity="0.5"/>
<line y1="219.5" x2="350" y2="219.5" stroke="url(#paint0_linear_322_225)"/>
<circle cx="175.5" cy="220.5" r="36" fill="#090A0C" stroke="#2F7AFF"/>
<path d="M160.032 221.264C160.032 215.816 162.96 212.12 167.448 212.12C171.936 212.12 174.888 215.816 174.888 221.264C174.888 226.688 172.104 230.312 167.448 230.312C162.792 230.312 160.032 226.688 160.032 221.264ZM163.056 221.264C163.056 225.32 164.688 227.6 167.448 227.6C170.232 227.6 171.864 225.32 171.864 221.264C171.864 217.112 170.232 214.832 167.448 214.832C164.688 214.832 163.056 217.112 163.056 221.264ZM182.068 221.312H179.932V219.32L184.444 215.168H177.148V212.456H188.284V214.904L184.012 218.84C186.7 219.368 188.788 221.336 188.788 224.432C188.788 228.032 185.98 230.312 182.428 230.312C178.996 230.312 176.332 228.2 176.332 224.408H179.356C179.356 226.424 180.604 227.576 182.476 227.576C184.396 227.576 185.668 226.328 185.668 224.384C185.668 222.608 184.516 221.312 182.068 221.312Z" fill="white"/>
<g clip-path="url(#clip0_322_225)">
<path fill-rule="evenodd" clip-rule="evenodd" d="M180.128 131.559C176.295 132.324 172.331 132.727 168.273 132.727C141.738 132.727 119.208 115.574 111.169 91.751L135.283 85.2896C140.401 98.516 153.241 107.897 168.273 107.897C170.111 107.897 171.915 107.757 173.677 107.487L180.128 131.559Z" fill="#2F7AFF"/>
<path fill-rule="evenodd" clip-rule="evenodd" d="M175.712 115.08C173.295 115.5 170.81 115.721 168.273 115.721C149.618 115.721 133.726 103.892 127.687 87.3249L135.283 85.2894C140.401 98.5157 153.24 107.897 168.273 107.897C170.111 107.897 171.915 107.757 173.677 107.486L175.712 115.08Z" fill="#2F7AFF"/>
<path fill-rule="evenodd" clip-rule="evenodd" d="M109.186 84.3256C108.421 80.4926 108.018 76.5293 108.018 72.4715C108.018 40.4844 132.943 14.3236 164.43 12.3412V37.3798C146.708 39.2955 132.91 54.3024 132.91 72.5342C132.91 74.3452 133.047 76.1243 133.31 77.8616L109.186 84.3256Z" fill="#2157B5"/>
<path fill-rule="evenodd" clip-rule="evenodd" d="M125.715 79.8969C125.303 77.504 125.087 75.0444 125.087 72.5342C125.087 49.9781 142.38 31.4645 164.431 29.5197V37.3801C146.708 39.2957 132.911 54.3027 132.911 72.5345C132.911 74.3454 133.047 76.1246 133.31 77.8619L125.715 79.8969Z" fill="#2157B5"/>
<path fill-rule="evenodd" clip-rule="evenodd" d="M172.116 12.3412C196.966 13.9057 217.725 30.5311 225.374 53.193L201.221 59.6648C196.519 47.639 185.425 38.8182 172.116 37.3798V12.3412H172.116Z" fill="#2B6FE8"/>
<path fill-rule="evenodd" clip-rule="evenodd" d="M208.818 57.6289L201.22 59.6648C196.519 47.6389 185.424 38.8182 172.116 37.3798V29.5193C189.045 31.0126 203.17 42.2711 208.818 57.6289Z" fill="#2B6FE8"/>
<path fill-rule="evenodd" clip-rule="evenodd" d="M227.361 60.617C228.126 64.45 228.529 68.4133 228.529 72.4715C228.529 82.0773 226.278 91.1565 222.279 99.2144L200.666 86.7361C202.575 82.3892 203.636 77.5858 203.636 72.5342C203.636 70.6813 203.493 68.8619 203.219 67.0862L227.361 60.617Z" fill="#1A438C"/>
<path fill-rule="evenodd" clip-rule="evenodd" d="M210.812 65.0512C211.237 67.4816 211.46 69.9817 211.46 72.5342C211.46 79.0112 210.031 85.1541 207.476 90.6682L200.666 86.7361C202.574 82.3892 203.636 77.5858 203.636 72.5342C203.636 70.6813 203.493 68.8619 203.218 67.0862L210.812 65.0512Z" fill="#1A438C"/>
<path fill-rule="evenodd" clip-rule="evenodd" d="M218.431 105.867C211.11 116.842 200.284 125.277 187.552 129.574L181.101 105.497C187.431 103.031 192.877 98.7937 196.828 93.3943L218.431 105.867Z" fill="#5995FF"/>
<path fill-rule="evenodd" clip-rule="evenodd" d="M203.637 97.3256C198.615 104.477 191.479 110.036 183.137 113.095L181.101 105.497C187.432 103.031 192.877 98.7937 196.828 93.3943L203.637 97.3256Z" fill="#5995FF"/>
<path d="M211.325 125.822C213.749 123.398 213.749 119.468 211.325 117.043C208.9 114.619 204.97 114.619 202.545 117.043C200.121 119.468 200.121 123.398 202.545 125.822C204.97 128.247 208.9 128.247 211.325 125.822Z" fill="white"/>
<path d="M192.389 73.0916C192.695 59.7936 182.163 48.7656 168.865 48.4597C155.567 48.1539 144.54 58.686 144.234 71.984C143.928 85.2819 154.46 96.31 167.758 96.6158C181.055 96.9216 192.083 86.3895 192.389 73.0916Z" fill="#EAF2FF"/>
<path fill-rule="evenodd" clip-rule="evenodd" d="M183.415 53.8145C188.866 58.2288 192.351 64.9741 192.351 72.5342C192.351 85.8319 181.571 96.612 168.273 96.612C160.926 96.612 154.348 93.3198 149.932 88.1314C154.068 91.4814 159.336 93.4895 165.074 93.4895C178.371 93.4895 189.151 82.7095 189.151 69.4117C189.151 63.4614 186.992 58.0163 183.415 53.8145Z" fill="#EAF2FF"/>
<path fill-rule="evenodd" clip-rule="evenodd" d="M165.961 58.2233C165.961 56.9462 166.996 55.9108 168.273 55.9108C169.551 55.9108 170.586 56.9462 170.586 58.2233V60.3126C171.299 60.4438 171.981 60.6803 172.615 61.0064C173.653 61.5397 174.549 62.3121 175.226 63.2486C175.969 64.2811 175.735 65.7213 174.702 66.4644C173.67 67.2076 172.23 66.9732 171.486 65.9407C171.234 65.5912 170.902 65.3039 170.519 65.1076C170.161 64.9237 169.744 64.8197 169.292 64.8197H167.713C166.973 64.8197 166.298 65.1243 165.807 65.6149C165.317 66.1054 165.012 66.7804 165.012 67.5207C165.012 68.261 165.317 68.9359 165.807 69.4267C166.298 69.9176 166.973 70.2222 167.713 70.2222H168.834C170.851 70.2222 172.683 71.0458 174.01 72.3726C175.337 73.6994 176.161 75.5315 176.161 77.5485C176.161 79.5656 175.337 81.398 174.01 82.7245C173.081 83.6541 171.902 84.3369 170.586 84.6621V86.8457C170.586 88.1227 169.551 89.1582 168.274 89.1582C166.997 89.1582 165.961 88.1227 165.961 86.8457V84.7566C165.248 84.6254 164.567 84.3886 163.932 84.0629C162.887 83.5261 161.992 82.7569 161.321 81.8296C160.573 80.7967 160.804 79.3532 161.836 78.6048C162.869 77.8564 164.312 78.0871 165.061 79.1196C165.32 79.4786 165.652 79.7688 166.028 79.9619C166.386 80.1458 166.803 80.2498 167.256 80.2498H168.834C169.575 80.2498 170.249 79.9452 170.74 79.4546C171.231 78.9641 171.535 78.2891 171.535 77.5485C171.535 76.8082 171.231 76.1333 170.74 75.6428C170.249 75.1522 169.575 74.8475 168.834 74.8475H167.713C165.696 74.8475 163.864 74.024 162.537 72.6972C161.211 71.3704 160.387 69.5383 160.387 67.5213C160.387 65.5042 161.211 63.6721 162.537 62.3453C163.467 61.4157 164.645 60.7329 165.961 60.4077V58.2233H165.961Z" fill="#2F7AFF"/>
<path d="M129.983 43.8692C136.019 37.8335 136.019 28.0478 129.983 22.0121C123.947 15.9765 114.161 15.9765 108.126 22.0121C102.09 28.0478 102.09 37.8335 108.126 43.8692C114.161 49.9049 123.947 49.9049 129.983 43.8692Z" fill="#F5FAFF"/>
<path fill-rule="evenodd" clip-rule="evenodd" d="M128.731 20.8845C132.258 23.7173 134.517 28.0657 134.517 32.9422C134.517 41.4791 127.597 48.3998 119.06 48.3998C114.184 48.3998 109.836 46.1411 107.002 42.6136C109.651 44.7403 113.013 46.0136 116.674 46.0136C125.21 46.0136 132.131 39.0931 132.131 30.556C132.131 26.8956 130.858 23.5326 128.731 20.8845Z" fill="#DEF0FF"/>
<path fill-rule="evenodd" clip-rule="evenodd" d="M129.119 44.679C126.415 46.9981 122.901 48.3998 119.06 48.3998C115.219 48.3998 111.705 46.9981 109.001 44.679C110.963 41.135 114.743 38.7214 119.06 38.7214C123.377 38.7214 127.157 41.135 129.119 44.679Z" fill="#2157B5"/>
<path fill-rule="evenodd" clip-rule="evenodd" d="M128.865 44.892L128.864 44.8926L128.863 44.8937L128.861 44.8952C128.824 44.9255 128.787 44.9559 128.749 44.9859L128.733 44.9989L128.72 45.0091C128.682 45.0394 128.645 45.0695 128.607 45.0992L128.605 45.101L128.602 45.103L128.593 45.1097C128.556 45.1391 128.518 45.1683 128.481 45.1972L128.455 45.2172L128.364 45.2866L128.311 45.3259L128.282 45.3481L128.252 45.3701L128.251 45.3704L128.162 45.436L128.133 45.4577L128.103 45.4794L128.012 45.5441L127.982 45.5655C125.462 47.3505 122.384 48.4001 119.06 48.4001C115.219 48.4001 111.706 46.9981 109.002 44.6787C109.101 44.4997 109.205 44.324 109.314 44.1508C111.502 45.3389 114.009 46.0138 116.674 46.0138C119.989 46.0138 123.06 44.9706 125.577 43.1943C123.719 40.798 120.937 39.1489 117.779 38.7939C118.2 38.7465 118.627 38.7214 119.06 38.7214C122.168 38.7214 124.997 39.9721 127.071 41.995L127.071 41.9947C127.563 42.4743 128.012 42.9975 128.411 43.5574L128.412 43.558C128.448 43.6088 128.484 43.6597 128.519 43.7112L128.521 43.7141C128.556 43.7655 128.592 43.8173 128.626 43.8693C128.661 43.921 128.695 43.9734 128.728 44.0254L128.731 44.0291C128.764 44.0806 128.796 44.132 128.828 44.1838L128.834 44.1936C128.865 44.2425 128.895 44.2916 128.924 44.3408L128.934 44.3572C128.963 44.4052 128.991 44.4532 129.018 44.5015L129.032 44.5249C129.06 44.5732 129.087 44.6217 129.114 44.6706L129.119 44.679C129.035 44.7509 128.95 44.822 128.865 44.892Z" fill="#2157B5"/>
<path fill-rule="evenodd" clip-rule="evenodd" d="M129.119 44.6789C128.521 45.192 127.883 45.6597 127.21 46.0777C126.805 45.0351 126.252 44.065 125.576 43.1937C126.099 42.8246 126.598 42.4245 127.071 41.995C127.877 42.7821 128.569 43.6863 129.119 44.6789Z" fill="#2157B5"/>
<path d="M120.491 37.9422C123.828 37.1536 125.893 33.8097 125.104 30.4734C124.316 27.1371 120.972 25.0719 117.635 25.8605C114.299 26.6491 112.234 29.993 113.022 33.3293C113.811 36.6656 117.155 38.7308 120.491 37.9422Z" fill="#FFD6BD"/>
<path fill-rule="evenodd" clip-rule="evenodd" d="M114.352 35.9608C115.491 37.2842 117.177 38.1222 119.06 38.1222C122.489 38.1222 125.268 35.3425 125.268 31.9137C125.268 29.7116 124.121 27.7775 122.393 26.6753C123.328 27.7622 123.893 29.1763 123.893 30.7225C123.893 34.1513 121.114 36.9309 117.685 36.9309C116.458 36.9307 115.315 36.5748 114.352 35.9608Z" fill="#F9C6AA"/>
<path d="M205.874 37.2399C214.411 37.2399 221.331 30.3193 221.331 21.7823C221.331 13.2453 214.411 6.32471 205.874 6.32471C197.337 6.32471 190.416 13.2453 190.416 21.7823C190.416 30.3193 197.337 37.2399 205.874 37.2399Z" fill="#F5FAFF"/>
<path fill-rule="evenodd" clip-rule="evenodd" d="M215.545 9.72498C219.072 12.5578 221.331 16.9062 221.331 21.7826C221.331 30.3195 214.411 37.2403 205.874 37.2403C200.997 37.2403 196.649 34.9815 193.816 31.4541C196.464 33.5807 199.827 34.854 203.487 34.854C212.024 34.854 218.945 27.9336 218.945 19.3964C218.945 15.7357 217.671 12.3731 215.545 9.72498Z" fill="#DEF0FF"/>
<path fill-rule="evenodd" clip-rule="evenodd" d="M215.932 33.5191C213.229 35.8383 209.715 37.2399 205.874 37.2399C202.032 37.2399 198.519 35.8383 195.815 33.5191C197.777 29.9752 201.557 27.5615 205.874 27.5615C210.191 27.5615 213.97 29.9752 215.932 33.5191Z" fill="#2B6FE8"/>
<path fill-rule="evenodd" clip-rule="evenodd" d="M215.678 33.7324L215.677 33.733L215.676 33.7342L215.674 33.7356C215.637 33.766 215.6 33.7963 215.563 33.8264L215.547 33.8394L215.534 33.8495C215.496 33.8799 215.458 33.9099 215.42 33.9397L215.418 33.9414L215.416 33.9434L215.407 33.9501C215.37 33.9796 215.332 34.0088 215.294 34.0377L215.268 34.0576L215.177 34.127L215.125 34.1663L215.095 34.1883L215.065 34.2102L215.065 34.2105L214.976 34.2762L214.946 34.2978L214.916 34.3195L214.826 34.3843L214.796 34.4057C212.275 36.1906 209.197 37.2402 205.874 37.2402C202.032 37.2402 198.519 35.8383 195.815 33.5188C195.915 33.3399 196.018 33.1641 196.127 32.991C198.315 34.179 200.823 34.854 203.488 34.854C206.802 34.854 209.873 33.8108 212.39 32.0345C210.532 29.6381 207.751 27.989 204.592 27.6341C205.013 27.5867 205.441 27.5615 205.874 27.5615C208.982 27.5615 211.811 28.8123 213.884 30.8352L213.884 30.8349C214.376 31.3144 214.825 31.8376 215.225 32.3978L215.225 32.3984C215.262 32.449 215.297 32.5002 215.333 32.5516L215.335 32.5545C215.37 32.606 215.405 32.6577 215.44 32.7097L215.44 32.71C215.475 32.7618 215.509 32.8138 215.542 32.8658L215.545 32.8696C215.578 32.921 215.61 32.9725 215.643 33.0242L215.649 33.0341C215.679 33.0829 215.709 33.132 215.738 33.1812L215.748 33.1977C215.777 33.2456 215.805 33.2936 215.832 33.3419L215.846 33.3653C215.874 33.4136 215.901 33.4622 215.928 33.511L215.933 33.5194C215.848 33.5911 215.764 33.6622 215.678 33.7324Z" fill="#2B6FE8"/>
<path fill-rule="evenodd" clip-rule="evenodd" d="M215.932 33.5192C215.334 34.0322 214.696 34.4999 214.024 34.9179C213.618 33.8753 213.065 32.9052 212.39 32.0339C212.913 31.6648 213.412 31.2648 213.884 30.8352C214.691 31.6223 215.383 32.5265 215.932 33.5192Z" fill="#2B6FE8"/>
<path d="M210.249 25.1525C212.674 22.7283 212.674 18.7979 210.249 16.3737C207.825 13.9495 203.895 13.9495 201.471 16.3737C199.046 18.7979 199.046 22.7283 201.471 25.1525C203.895 27.5767 207.825 27.5767 210.249 25.1525Z" fill="#FFD6BD"/>
<path fill-rule="evenodd" clip-rule="evenodd" d="M201.166 24.8013C202.304 26.1246 203.991 26.9626 205.873 26.9626C209.302 26.9626 212.082 24.183 212.082 20.7541C212.082 18.5521 210.935 16.6179 209.206 15.5157C210.141 16.6026 210.707 18.0167 210.707 19.5629C210.707 22.9918 207.927 25.7714 204.498 25.7714C203.272 25.7711 202.129 25.4153 201.166 24.8013Z" fill="#F9C6AA"/>
<path d="M245.274 86.3597C248.543 78.4715 244.799 69.4263 236.911 66.1566C229.023 62.8869 219.978 66.631 216.708 74.5192C213.438 82.4074 217.182 91.4526 225.071 94.7223C232.959 97.9919 242.004 94.2479 245.274 86.3597Z" fill="#F5FAFF"/>
<path fill-rule="evenodd" clip-rule="evenodd" d="M240.611 68.372C244.139 71.2048 246.398 75.5532 246.398 80.4297C246.398 88.9666 239.477 95.8873 230.94 95.8873C226.064 95.8873 221.716 93.6286 218.883 90.1011C221.531 92.2278 224.894 93.5011 228.554 93.5011C237.091 93.5011 244.012 86.5806 244.012 78.0435C244.012 74.3831 242.738 71.0201 240.611 68.372Z" fill="#DEF0FF"/>
<path fill-rule="evenodd" clip-rule="evenodd" d="M240.999 92.1664C238.295 94.4856 234.781 95.8873 230.94 95.8873C227.099 95.8873 223.585 94.4856 220.882 92.1664C222.843 88.6225 226.624 86.2089 230.94 86.2089C235.257 86.2092 239.037 88.6225 240.999 92.1664Z" fill="#1A438C"/>
<path fill-rule="evenodd" clip-rule="evenodd" d="M240.745 92.3795L240.744 92.3801L240.743 92.3812L240.741 92.3827C240.704 92.413 240.666 92.4434 240.629 92.4734L240.613 92.4864L240.6 92.4966C240.562 92.5269 240.525 92.557 240.487 92.5867L240.485 92.5885L240.482 92.5905L240.473 92.5971C240.436 92.6266 240.398 92.6558 240.361 92.6847L240.335 92.7047L240.244 92.7741L240.191 92.8134L240.161 92.8356L240.131 92.8576L240.131 92.8579L240.042 92.9235L240.012 92.9452L239.982 92.9669L239.892 93.0316L239.862 93.053C237.341 94.838 234.263 95.8875 230.94 95.8875C227.098 95.8875 223.585 94.4856 220.882 92.1662C220.981 91.9872 221.085 91.8115 221.193 91.6383C223.381 92.8264 225.889 93.5013 228.554 93.5013C231.869 93.5013 234.94 92.4581 237.456 90.6818C235.598 88.2855 232.817 86.6364 229.658 86.2814C230.079 86.234 230.507 86.2089 230.94 86.2089C234.048 86.2089 236.877 87.4596 238.95 89.4825L238.95 89.4822C239.442 89.9618 239.891 90.485 240.291 91.0449L240.291 91.0455C240.328 91.0963 240.364 91.1472 240.399 91.1987L240.401 91.2016C240.436 91.253 240.471 91.3048 240.506 91.3568L240.506 91.3571C240.541 91.4088 240.575 91.4608 240.608 91.5129L240.611 91.5166C240.644 91.5681 240.676 91.6195 240.708 91.6713L240.714 91.6811C240.745 91.73 240.775 91.7791 240.804 91.8282L240.814 91.8447C240.843 91.8924 240.871 91.9407 240.898 91.989L240.912 92.0124C240.94 92.0606 240.967 92.1092 240.994 92.1581L240.999 92.1664C240.915 92.2384 240.83 92.3095 240.745 92.3795Z" fill="#1A438C"/>
<path fill-rule="evenodd" clip-rule="evenodd" d="M240.999 92.1665C240.4 92.6796 239.762 93.1473 239.09 93.5653C238.685 92.5226 238.132 91.5525 237.456 90.6813C237.979 90.3122 238.478 89.9121 238.951 89.4825C239.757 90.2697 240.449 91.1738 240.999 92.1665Z" fill="#1A438C"/>
<path d="M235.307 83.7959C237.731 81.3717 237.731 77.4413 235.307 75.0171C232.883 72.5929 228.952 72.5929 226.528 75.0171C224.104 77.4413 224.104 81.3717 226.528 83.7959C228.952 86.2201 232.883 86.2201 235.307 83.7959Z" fill="#FFD6BD"/>
<path fill-rule="evenodd" clip-rule="evenodd" d="M226.232 83.4483C227.371 84.7717 229.057 85.6097 230.94 85.6097C234.369 85.6097 237.149 82.83 237.149 79.4012C237.149 77.1991 236.002 75.265 234.273 74.1628C235.208 75.2497 235.774 76.6638 235.774 78.2099C235.774 81.6388 232.994 84.4184 229.566 84.4184C228.339 84.4181 227.195 84.0623 226.232 83.4483Z" fill="#F9C6AA"/>
<path d="M221.291 128.409C224.56 120.521 220.816 111.476 212.928 108.206C205.04 104.937 195.995 108.681 192.725 116.569C189.455 124.457 193.199 133.502 201.088 136.772C208.976 140.042 218.021 136.298 221.291 128.409Z" fill="#F5FAFF"/>
<path fill-rule="evenodd" clip-rule="evenodd" d="M216.631 110.405C220.158 113.238 222.417 117.587 222.417 122.463C222.417 131 215.497 137.921 206.959 137.921C202.083 137.921 197.735 135.662 194.902 132.135C197.55 134.261 200.913 135.535 204.573 135.535C213.11 135.535 220.031 128.614 220.031 120.077C220.031 116.416 218.758 113.053 216.631 110.405Z" fill="#DEF0FF"/>
<path fill-rule="evenodd" clip-rule="evenodd" d="M217.018 134.2C214.314 136.519 210.801 137.92 206.959 137.92C203.118 137.92 199.604 136.519 196.901 134.2C198.863 130.656 202.643 128.242 206.959 128.242C211.276 128.242 215.056 130.656 217.018 134.2Z" fill="#5995FF"/>
<path fill-rule="evenodd" clip-rule="evenodd" d="M216.764 134.413L216.763 134.414L216.762 134.415L216.76 134.416C216.723 134.446 216.686 134.477 216.648 134.507L216.632 134.52L216.62 134.53C216.582 134.56 216.544 134.59 216.506 134.62L216.504 134.622L216.502 134.624L216.493 134.631C216.455 134.66 216.418 134.689 216.38 134.718L216.354 134.738L216.263 134.808L216.21 134.847L216.18 134.869L216.151 134.891L216.15 134.891L216.061 134.957L216.031 134.978L216.001 135L215.911 135.065L215.881 135.086C213.36 136.871 210.282 137.921 206.959 137.921C203.117 137.921 199.604 136.519 196.901 134.199C197 134.02 197.104 133.845 197.212 133.672C199.401 134.86 201.908 135.535 204.573 135.535C207.888 135.535 210.959 134.491 213.475 132.715C211.617 130.319 208.836 128.67 205.677 128.315C206.099 128.267 206.526 128.242 206.959 128.242C210.067 128.242 212.896 129.493 214.97 131.516L214.97 131.515C215.462 131.995 215.91 132.518 216.311 133.078L216.311 133.079C216.347 133.13 216.383 133.181 216.418 133.232L216.42 133.235C216.456 133.286 216.491 133.338 216.526 133.39L216.526 133.391C216.56 133.442 216.594 133.494 216.628 133.546L216.63 133.55C216.663 133.602 216.696 133.653 216.728 133.705L216.734 133.715C216.764 133.763 216.794 133.813 216.824 133.862L216.833 133.878C216.862 133.926 216.89 133.974 216.918 134.022L216.931 134.046C216.959 134.094 216.986 134.143 217.014 134.192L217.018 134.2C216.934 134.272 216.849 134.343 216.764 134.413Z" fill="#5995FF"/>
<path fill-rule="evenodd" clip-rule="evenodd" d="M217.018 134.2C216.42 134.713 215.782 135.18 215.109 135.598C214.704 134.556 214.151 133.586 213.475 132.714C213.998 132.345 214.497 131.945 214.97 131.516C215.777 132.303 216.469 133.207 217.018 134.2Z" fill="#5995FF"/>
<path d="M211.324 125.822C213.749 123.398 213.749 119.468 211.324 117.043C208.9 114.619 204.97 114.619 202.546 117.043C200.121 119.468 200.121 123.398 202.546 125.822C204.97 128.246 208.9 128.246 211.324 125.822Z" fill="#FFD6BD"/>
<path fill-rule="evenodd" clip-rule="evenodd" d="M202.252 125.482C203.39 126.805 205.077 127.643 206.959 127.643C210.388 127.643 213.168 124.863 213.168 121.435C213.168 119.233 212.021 117.298 210.293 116.196C211.228 117.283 211.793 118.697 211.793 120.243C211.793 123.672 209.013 126.452 205.585 126.452C204.358 126.452 203.215 126.096 202.252 125.482Z" fill="#F9C6AA"/>
<path d="M134.993 141.675C143.53 141.675 150.45 134.755 150.45 126.218C150.45 117.681 143.53 110.76 134.993 110.76C126.456 110.76 119.535 117.681 119.535 126.218C119.535 134.755 126.456 141.675 134.993 141.675Z" fill="#F5FAFF"/>
<path fill-rule="evenodd" clip-rule="evenodd" d="M144.664 114.16C148.192 116.993 150.45 121.341 150.45 126.217C150.45 134.754 143.53 141.675 134.993 141.675C130.116 141.675 125.768 139.416 122.935 135.889C125.583 138.016 128.946 139.289 132.606 139.289C141.143 139.289 148.064 132.368 148.064 123.831C148.064 120.171 146.791 116.808 144.664 114.16Z" fill="#DEF0FF"/>
<path fill-rule="evenodd" clip-rule="evenodd" d="M145.051 137.954C142.348 140.273 138.834 141.675 134.993 141.675C131.152 141.675 127.638 140.273 124.934 137.954C126.896 134.41 130.676 131.997 134.993 131.997C139.31 131.997 143.09 134.41 145.051 137.954Z" fill="#2F7AFF"/>
<path fill-rule="evenodd" clip-rule="evenodd" d="M144.797 138.167L144.797 138.168L144.795 138.169L144.793 138.17C144.756 138.201 144.719 138.231 144.682 138.261L144.666 138.274L144.653 138.284C144.615 138.315 144.577 138.345 144.539 138.375L144.537 138.376L144.535 138.378L144.526 138.385C144.489 138.414 144.451 138.444 144.413 138.473L144.387 138.493L144.296 138.562L144.244 138.601L144.214 138.623L144.184 138.645L144.184 138.645L144.095 138.711L144.065 138.733L144.035 138.754L143.945 138.819L143.915 138.841C141.394 140.625 138.316 141.675 134.993 141.675C131.151 141.675 127.638 140.273 124.935 137.954C125.034 137.775 125.138 137.599 125.246 137.426C127.435 138.614 129.942 139.289 132.607 139.289C135.922 139.289 138.993 138.246 141.509 136.469C139.651 134.073 136.87 132.424 133.711 132.069C134.132 132.022 134.56 131.996 134.993 131.996C138.101 131.996 140.93 133.247 143.004 135.27L143.004 135.27C143.496 135.749 143.944 136.273 144.344 136.832L144.344 136.833C144.381 136.884 144.416 136.935 144.452 136.986L144.454 136.989C144.489 137.041 144.525 137.092 144.559 137.144L144.56 137.145C144.594 137.196 144.628 137.248 144.662 137.301L144.664 137.304C144.697 137.356 144.73 137.407 144.762 137.459L144.768 137.469C144.798 137.518 144.828 137.567 144.857 137.616L144.867 137.633C144.896 137.681 144.924 137.729 144.952 137.777L144.965 137.8C144.993 137.848 145.02 137.897 145.047 137.946L145.052 137.954C144.967 138.026 144.883 138.097 144.797 138.167Z" fill="#2F7AFF"/>
<path fill-rule="evenodd" clip-rule="evenodd" d="M145.051 137.954C144.453 138.467 143.815 138.935 143.143 139.353C142.738 138.31 142.184 137.34 141.509 136.469C142.032 136.1 142.531 135.7 143.003 135.27C143.81 136.057 144.502 136.962 145.051 137.954Z" fill="#2F7AFF"/>
<path d="M136.443 131.191C139.779 130.402 141.845 127.058 141.056 123.722C140.267 120.386 136.924 118.32 133.587 119.109C130.251 119.898 128.186 123.241 128.974 126.578C129.763 129.914 133.107 131.979 136.443 131.191Z" fill="#FFD6BD"/>
<path fill-rule="evenodd" clip-rule="evenodd" d="M130.285 129.236C131.424 130.559 133.11 131.397 134.993 131.397C138.422 131.397 141.201 128.618 141.201 125.189C141.201 122.987 140.055 121.053 138.326 119.951C139.261 121.037 139.826 122.452 139.826 123.998C139.826 127.427 137.047 130.206 133.618 130.206C132.392 130.206 131.248 129.85 130.285 129.236Z" fill="#F9C6AA"/>
</g>
<defs>
<linearGradient id="paint0_linear_322_225" x1="0" y1="220.5" x2="350" y2="220.5" gradientUnits="userSpaceOnUse">
<stop stop-color="#090A0C"/>
<stop offset="0.49667" stop-color="#2F7AFF"/>
<stop offset="1" stop-color="#090A0C"/>
</linearGradient>
<clipPath id="clip0_322_225">
<rect width="148" height="148" fill="white" transform="translate(101)"/>
</clipPath>
</defs>
</svg>
