<svg width="294" height="80" viewBox="0 0 294 80" fill="none" xmlns="http://www.w3.org/2000/svg">
<g clip-path="url(#clip0_244_506)">
<path d="M64.2449 10.2084H60.8594V6.82297C60.8594 3.06078 57.7986 0 54.0364 0H25.9636C25.5078 0 25.0707 0.181094 24.7483 0.503437L9.43581 15.8159C9.11347 16.1383 8.93237 16.5755 8.93237 17.0312V62.9688C8.93237 66.7309 11.9932 69.7917 15.7553 69.7917H19.1407V73.1772C19.1407 75.0006 19.8508 76.7142 21.1388 78.0005C22.4267 79.29 24.14 80.0002 25.9635 80.0002H64.2447C68.0069 80.0002 71.0677 76.9394 71.0677 73.1772V17.0312C71.0677 13.2691 68.0071 10.2084 64.2449 10.2084ZM26.6755 3.4375H26.7969V14.4791C26.7969 16.3458 25.2782 17.8645 23.4114 17.8645H12.3699V17.7431L26.6755 3.4375ZM12.3699 62.9688V21.302H23.4116C27.1738 21.302 30.2346 18.2412 30.2346 14.4791V3.4375H54.0366C55.9033 3.4375 57.4221 4.95625 57.4221 6.82297V62.9688C57.4221 64.8355 55.9033 66.3542 54.0366 66.3542H15.7553C13.8885 66.3542 12.3699 64.8355 12.3699 62.9688ZM67.6302 73.177C67.6302 75.0438 66.1114 76.5625 64.2447 76.5625H25.9635C25.0591 76.5625 24.2094 76.2105 23.5694 75.5695C22.9302 74.9313 22.5782 74.0816 22.5782 73.1772V69.7917H54.0364C57.7986 69.7917 60.8594 66.7309 60.8594 62.9688V13.6459H64.2449C66.1116 13.6459 67.6303 15.1647 67.6303 17.0312V73.177H67.6302Z" fill="white"/>
<path d="M46.3801 34.0625H23.4114C22.4622 34.0625 21.6926 33.293 21.6926 32.3438C21.6926 31.3945 22.4622 30.625 23.4114 30.625H46.3801C47.3293 30.625 48.0989 31.3945 48.0989 32.3438C48.0989 33.293 47.3295 34.0625 46.3801 34.0625Z" fill="#2F7AFF"/>
<path d="M46.3801 44.2708H23.4114C22.4622 44.2708 21.6926 43.5012 21.6926 42.552C21.6926 41.6028 22.4622 40.8333 23.4114 40.8333H46.3801C47.3293 40.8333 48.0989 41.6028 48.0989 42.552C48.0989 43.5012 47.3295 44.2708 46.3801 44.2708Z" fill="white"/>
<path d="M36.1718 54.4792H23.4114C22.4622 54.4792 21.6926 53.7097 21.6926 52.7605C21.6926 51.8113 22.4622 51.0417 23.4114 51.0417H36.1718C37.1211 51.0417 37.8906 51.8113 37.8906 52.7605C37.8906 53.7097 37.1211 54.4792 36.1718 54.4792Z" fill="#2F7AFF"/>
</g>
<line y1="-0.5" x2="150" y2="-0.5" transform="matrix(-1 0 0 1 242 40)" stroke="url(#paint0_linear_244_506)"/>
<circle cx="274" cy="40" r="19.5" fill="#2F7AFF" stroke="#2F7AFF"/>
<path d="M265.688 40.176C265.688 36.544 267.64 34.08 270.632 34.08C273.624 34.08 275.592 36.544 275.592 40.176C275.592 43.792 273.736 46.208 270.632 46.208C267.528 46.208 265.688 43.792 265.688 40.176ZM267.704 40.176C267.704 42.88 268.792 44.4 270.632 44.4C272.488 44.4 273.576 42.88 273.576 40.176C273.576 37.408 272.488 35.888 270.632 35.888C268.792 35.888 267.704 37.408 267.704 40.176ZM279.385 36.144H276.825V34.304H281.353V46H279.385V36.144Z" fill="white"/>
<defs>
<linearGradient id="paint0_linear_244_506" x1="0" y1="0.5" x2="150" y2="0.5" gradientUnits="userSpaceOnUse">
<stop stop-color="#2F7AFF"/>
<stop offset="1" stop-color="#090A0C"/>
</linearGradient>
<clipPath id="clip0_244_506">
<rect width="80" height="80" fill="white"/>
</clipPath>
</defs>
</svg>
