<svg width="350" height="280" viewBox="0 0 350 280" fill="none" xmlns="http://www.w3.org/2000/svg">
<g clip-path="url(#clip0_322_158)">
<path d="M115.5 220C115.5 204.22 121.769 189.086 132.927 177.927C144.086 166.769 159.22 160.5 175 160.5C190.78 160.5 205.914 166.769 217.073 177.927C228.231 189.086 234.5 204.22 234.5 220" stroke="#2F7AFF" stroke-opacity="0.2"/>
<path d="M125.5 220C125.5 206.872 130.715 194.281 139.998 184.998C149.281 175.715 161.872 170.5 175 170.5C188.128 170.5 200.719 175.715 210.002 184.998C219.285 194.281 224.5 206.872 224.5 220" stroke="#2F7AFF" stroke-opacity="0.5"/>
<line y1="219.5" x2="350" y2="219.5" stroke="url(#paint0_linear_322_158)"/>
<circle cx="175.5" cy="220.5" r="36" fill="#090A0C" stroke="#2F7AFF"/>
<path d="M163.032 221.264C163.032 215.816 165.96 212.12 170.448 212.12C174.936 212.12 177.888 215.816 177.888 221.264C177.888 226.688 175.104 230.312 170.448 230.312C165.792 230.312 163.032 226.688 163.032 221.264ZM166.056 221.264C166.056 225.32 167.688 227.6 170.448 227.6C173.232 227.6 174.864 225.32 174.864 221.264C174.864 217.112 173.232 214.832 170.448 214.832C167.688 214.832 166.056 217.112 166.056 221.264ZM183.578 215.216H179.738V212.456H186.53V230H183.578V215.216Z" fill="white"/>
</g>
<g opacity="0.1">
<path d="M240.449 77.5375C238.334 46.5315 213.473 21.6713 182.467 19.5559C180.148 19.3978 178.176 21.2302 178.176 23.5548V24.5208C146.576 24.5208 120.868 50.2289 120.868 81.8289C120.868 96.5058 126.416 109.91 135.523 120.059V141.093C135.523 142.394 136.578 143.45 137.879 143.45H145.713C147.014 143.45 148.07 142.395 148.07 141.093V130.571C149.805 131.647 151.601 132.635 153.454 133.524V141.093C153.454 142.394 154.509 143.45 155.81 143.45H163.644C164.945 143.45 166.001 142.395 166.001 141.093V137.831C169.926 138.683 173.999 139.137 178.176 139.137C209.775 139.137 235.484 113.428 235.484 81.8286H236.45C238.775 81.8292 240.607 79.8567 240.449 77.5375ZM206.151 81.8292C206.151 97.2547 193.601 109.804 178.176 109.804C173.814 109.804 169.683 108.8 166.001 107.013V100.688C166.001 99.3866 164.945 98.3312 163.644 98.3312H155.81C155.742 98.3312 155.675 98.3358 155.609 98.3413C152.211 93.7103 150.201 88.0004 150.201 81.8289C150.201 66.4034 162.75 53.8537 178.176 53.8537V55.7734C178.176 57.7518 179.621 59.4306 181.576 59.7304C191.187 61.2032 198.801 68.8179 200.274 78.4284C200.574 80.3839 202.253 81.8289 204.231 81.8289L206.151 81.8292Z" fill="#14336B"/>
<path d="M127.781 126.694H119.948C118.646 126.694 117.591 127.749 117.591 129.051V141.093C117.591 142.395 118.646 143.45 119.948 143.45H127.781C129.083 143.45 130.138 142.395 130.138 141.093V129.051C130.138 127.749 129.083 126.694 127.781 126.694Z" fill="#14336B"/>
</g>
<path d="M178.175 132.2C146.576 132.2 120.868 106.491 120.868 74.8915C120.868 43.2917 146.576 17.5837 178.175 17.5837C209.775 17.5837 235.484 43.292 235.484 74.8918C235.484 106.491 209.775 132.2 178.175 132.2ZM178.175 46.9166C162.75 46.9166 150.201 59.466 150.201 74.8915C150.201 90.317 162.75 102.866 178.175 102.866C193.601 102.866 206.151 90.317 206.151 74.8915C206.151 59.466 193.601 46.9166 178.175 46.9166Z" fill="white"/>
<path d="M210.267 85.3492C205.853 98.8579 193.139 108.648 178.176 108.648C159.562 108.648 144.42 93.5048 144.42 74.8918C144.42 60.3401 153.675 47.9095 166.608 43.1776V24.6747C143.748 29.9385 126.649 50.4556 126.649 74.8918C126.649 103.304 149.764 126.418 178.176 126.418C203.005 126.418 223.785 108.764 228.631 85.3492H210.267Z" fill="#2F7AFF"/>
<path d="M236.45 74.8915H204.231C202.253 74.8915 200.574 73.4464 200.274 71.4909C198.802 61.8805 191.186 54.2657 181.576 52.7929C179.621 52.4932 178.176 50.8143 178.176 48.8359V16.6173C178.176 14.2927 180.148 12.46 182.467 12.6184C213.473 14.7338 238.334 39.594 240.449 70.6C240.607 72.9192 238.775 74.8915 236.45 74.8915Z" fill="#2F7AFF"/>
<path d="M183.596 17.8418V47.4447C194.745 49.6416 203.538 58.484 205.657 69.6591H235.246C232.757 42.2878 210.941 20.4145 183.596 17.8418Z" fill="white"/>
<path d="M127.781 136.513H119.948C118.646 136.513 117.591 135.458 117.591 134.156V122.113C117.591 120.812 118.646 119.756 119.948 119.756H127.781C129.083 119.756 130.138 120.811 130.138 122.113V134.156C130.138 135.457 129.083 136.513 127.781 136.513Z" fill="white"/>
<path d="M145.713 136.513H137.879C136.578 136.513 135.522 135.458 135.522 134.156V109.902C135.522 108.6 136.577 107.545 137.879 107.545H145.713C147.014 107.545 148.07 108.6 148.07 109.902V134.156C148.07 135.457 147.014 136.513 145.713 136.513Z" fill="white"/>
<path d="M163.644 136.513H155.811C154.509 136.513 153.454 135.458 153.454 134.156V93.7504C153.454 92.4488 154.509 91.3934 155.811 91.3934H163.644C164.946 91.3934 166.001 92.4485 166.001 93.7504V134.156C166.001 135.457 164.946 136.513 163.644 136.513Z" fill="white"/>
<path d="M241.891 70.5014C240.844 55.1571 234.247 40.6858 223.314 29.7532C212.381 18.8205 197.91 12.2233 182.565 11.1763C181.06 11.0722 179.562 11.605 178.46 12.6349C177.474 13.5564 176.869 14.8199 176.754 16.1563C145.011 16.9145 119.422 42.97 119.422 74.8903C119.422 89.1853 124.624 102.932 134.077 113.668V134.156C134.077 136.252 135.783 137.958 137.879 137.958H145.713C147.809 137.958 149.515 136.252 149.515 134.156V126.162C150.336 126.623 151.168 127.065 152.008 127.485V134.156C152.008 136.252 153.714 137.958 155.81 137.958H163.644C165.74 137.958 167.446 136.252 167.446 134.156V132.659C170.964 133.312 174.565 133.645 178.177 133.645C210.097 133.645 236.153 108.056 236.911 76.313C238.247 76.1983 239.511 75.5936 240.432 74.6073C241.462 73.5045 241.994 72.008 241.891 70.5014ZM163.644 89.9484H156.35C153.273 85.509 151.647 80.32 151.647 74.8903C151.647 60.7485 162.772 49.1565 176.73 48.4029V48.8359C176.73 51.5459 178.676 53.8107 181.357 54.2217C190.286 55.5902 197.477 62.7815 198.846 71.7097C199.256 74.3908 201.521 76.3368 204.231 76.3368H204.667C203.913 90.2953 192.32 101.42 178.177 101.42C174.433 101.42 170.828 100.656 167.446 99.1499V93.7502C167.446 91.6539 165.74 89.9484 163.644 89.9484ZM145.713 135.067H137.879C137.377 135.067 136.968 134.658 136.968 134.156V109.902C136.968 109.399 137.377 108.991 137.879 108.991H145.713C146.215 108.991 146.624 109.4 146.624 109.902V134.156C146.624 134.658 146.215 135.067 145.713 135.067ZM164.555 134.156C164.555 134.658 164.146 135.067 163.644 135.067H155.81C155.308 135.067 154.899 134.658 154.899 134.156V107.299C154.899 106.5 154.252 105.853 153.453 105.853C152.655 105.853 152.008 106.5 152.008 107.299V124.232C151.165 123.782 150.333 123.311 149.515 122.819V109.902C149.515 107.806 147.809 106.1 145.713 106.1H137.879C136.014 106.1 134.461 107.451 134.141 109.226C126.488 99.4323 122.312 87.3807 122.312 74.8903C122.312 44.5717 146.592 19.8172 176.73 19.0475V45.5082C161.177 46.265 148.756 59.1543 148.756 74.8903C148.756 80.5868 150.372 86.0443 153.435 90.7861C152.566 91.4836 152.008 92.5523 152.008 93.7505V99.5739C152.008 100.372 152.655 101.019 153.453 101.019C154.252 101.019 154.899 100.372 154.899 99.5739V93.7505C154.899 93.2478 155.308 92.839 155.81 92.839H163.644C164.146 92.839 164.555 93.2481 164.555 93.7505V134.156ZM238.32 72.6339C237.831 73.1576 237.166 73.4464 236.45 73.4464H223.129C222.33 73.4464 221.684 74.0936 221.684 74.8917C221.684 75.6898 222.33 76.337 223.129 76.337H234.02C233.25 106.475 208.495 130.755 178.177 130.755C174.561 130.755 170.957 130.403 167.446 129.716V102.283C170.855 103.628 174.455 104.311 178.177 104.311C193.914 104.311 206.805 91.8901 207.561 76.3368H215.405C216.203 76.3368 216.85 75.6895 216.85 74.8914C216.85 74.0933 216.203 73.4461 215.405 73.4461H204.231C202.959 73.4461 201.896 72.5318 201.703 71.2721C200.933 66.2505 198.615 61.6848 194.999 58.0686C191.383 54.4524 186.817 52.1341 181.795 51.3646C180.535 51.1715 179.621 50.1081 179.621 48.8362V16.6173C179.621 15.901 179.91 15.237 180.434 14.7477C180.961 14.2551 181.646 14.0114 182.369 14.0603C212.596 16.1227 236.945 40.4716 239.007 70.698C239.056 71.4192 238.812 72.1066 238.32 72.6339Z" fill="#14336B"/>
<path d="M127.781 118.311H119.948C117.851 118.311 116.146 120.017 116.146 122.113V134.156C116.146 136.252 117.851 137.958 119.948 137.958H127.781C129.878 137.958 131.583 136.252 131.583 134.156V122.113C131.584 120.017 129.878 118.311 127.781 118.311ZM128.693 134.156C128.693 134.658 128.284 135.067 127.782 135.067H119.948C119.446 135.067 119.037 134.658 119.037 134.156V122.113C119.037 121.611 119.446 121.202 119.948 121.202H127.782C128.284 121.202 128.693 121.611 128.693 122.113V134.156Z" fill="#14336B"/>
<path d="M208.853 43.8846H208.415V40.9419H211.147C211.946 40.9419 212.593 40.2947 212.593 39.4966C212.593 38.6985 211.946 38.0513 211.147 38.0513H208.415V37.3246C208.415 36.5265 207.767 35.8793 206.969 35.8793C206.171 35.8793 205.524 36.5265 205.524 37.3246V38.0513H205.086C202.681 38.0513 200.724 40.008 200.724 42.4132C200.724 44.8185 202.681 46.7752 205.086 46.7752H205.524V49.7178H202.792C201.993 49.7178 201.346 50.3651 201.346 51.1632C201.346 51.9613 201.993 52.6085 202.792 52.6085H205.524V53.3352C205.524 54.1333 206.171 54.7805 206.969 54.7805C207.767 54.7805 208.415 54.1333 208.415 53.3352V52.6085H208.853C211.258 52.6085 213.215 50.6518 213.215 48.2465C213.215 45.8412 211.258 43.8846 208.853 43.8846ZM205.086 43.8846C204.275 43.8846 203.615 43.2246 203.615 42.4132C203.615 41.6018 204.275 40.9419 205.086 40.9419H205.524V43.8846H205.086ZM208.853 49.7178H208.415V46.7752H208.853C209.664 46.7752 210.324 47.4351 210.324 48.2465C210.324 49.0579 209.664 49.7178 208.853 49.7178Z" fill="#2F7AFF"/>
<path d="M118.747 113.851C118.378 113.851 118.007 113.71 117.726 113.428L116.146 111.848L114.566 113.428C114.002 113.992 113.086 113.992 112.523 113.428C111.958 112.863 111.958 111.948 112.523 111.384L115.124 108.782C115.688 108.218 116.604 108.218 117.168 108.782L119.769 111.384C120.334 111.948 120.334 112.864 119.769 113.428C119.487 113.71 119.117 113.851 118.747 113.851Z" fill="#2F7AFF"/>
<path d="M121.665 43.244C121.295 43.244 120.925 43.103 120.643 42.8208C120.079 42.2563 120.079 41.3411 120.643 40.7769L123.534 37.8863C124.098 37.322 125.013 37.322 125.577 37.8863C126.142 38.4508 126.142 39.366 125.577 39.9302L122.687 42.8208C122.405 43.1027 122.035 43.244 121.665 43.244Z" fill="#2F7AFF"/>
<path d="M116.146 101.69C115.776 101.69 115.406 101.549 115.124 101.267C114.56 100.703 114.56 99.7875 115.124 99.2233L118.015 96.3327C118.579 95.7684 119.494 95.7684 120.058 96.3327C120.623 96.8972 120.623 97.8124 120.058 98.3766L117.168 101.267C116.886 101.549 116.516 101.69 116.146 101.69Z" fill="#2F7AFF"/>
<path d="M227.235 123.803C226.865 123.803 226.495 123.662 226.213 123.38L224.633 121.801L223.054 123.38C222.49 123.944 221.574 123.944 221.01 123.38C220.446 122.816 220.446 121.901 221.01 121.336L223.612 118.735C224.176 118.17 225.091 118.17 225.655 118.735L228.257 121.336C228.821 121.901 228.821 122.816 228.257 123.38C227.975 123.662 227.605 123.803 227.235 123.803Z" fill="#2F7AFF"/>
<path d="M211.016 12.7476C210.647 12.7476 210.276 12.6066 209.994 12.3244L208.415 10.745L206.835 12.3244C206.271 12.8887 205.355 12.8887 204.791 12.3244C204.227 11.7599 204.227 10.8447 204.791 10.2805L207.393 7.67892C207.957 7.11467 208.873 7.11467 209.437 7.67892L212.038 10.2805C212.603 10.845 212.603 11.7602 212.038 12.3244C211.756 12.6063 211.386 12.7476 211.016 12.7476Z" fill="#2F7AFF"/>
<defs>
<linearGradient id="paint0_linear_322_158" x1="0" y1="220.5" x2="350" y2="220.5" gradientUnits="userSpaceOnUse">
<stop stop-color="#090A0C"/>
<stop offset="0.49667" stop-color="#2F7AFF"/>
<stop offset="1" stop-color="#090A0C"/>
</linearGradient>
<clipPath id="clip0_322_158">
<rect width="350" height="120" fill="white" transform="translate(0 160)"/>
</clipPath>
</defs>
</svg>
